<?xml version="1.0" encoding="UTF-8"?>
<svg width="24px" height="24px" viewBox="0 0 24 24" version="1.1" xmlns="http://www.w3.org/2000/svg" xmlns:xlink="http://www.w3.org/1999/xlink">
    <!-- Generator: Sketch 63.1 (92452) - https://sketch.com -->
    <title>Untitled</title>
    <desc>Created with Sketch.</desc>
    <g id="Page-1" stroke="none" stroke-width="1" fill="none" fill-rule="evenodd">
        <g id="edit_pencil" transform="translate(0.125000, 0.125000)" fill-rule="nonzero">
            <path d="M22.3035714,20.2678571 L0.875,20.2678571 C0.875,20.2678571 0.875,21.0678571 0.875,22.6678571 C0.875,22.6678571 8.01785714,22.6678571 22.3035714,22.6678571 L22.3035714,20.2678571 Z M4.77767857,18.0178571 C4.83125,18.0178571 4.88482143,18.0125 4.93839286,18.0044643 L9.44375,17.2142857 C9.49732143,17.2035714 9.54821429,17.1794643 9.58571429,17.1392857 L20.9401786,5.78482143 L16.4883929,0.952678571 C16.4375,0.901785714 16.3705357,0.875 16.2982143,0.875 C16.2258929,0.875 16.1589286,0.901785714 16.1080357,0.952678571 L4.75357143,12.3071429 C4.71339286,12.3473214 4.68928571,12.3955357 4.67857143,12.4491071 L3.88839286,16.9544643 C4.00625,17.06875 4.30267857,17.4232143 4.77767857,18.0178571 Z M6.58303571,13.3464286 L16.2982143,3.63392857 L18.2616071,5.59732143 L8.54642857,15.3098214 L6.16517857,15.7303571 L6.58303571,13.3464286 L6.58303571,13.3464286 Z" id="Shape" fill="#535353"></path>
        </g>
    </g>
</svg>