<?xml version="1.0" encoding="UTF-8" standalone="no"?>
<!-- Generator: Adobe Illustrator 16.0.0, SVG Export Plug-In . SVG Version: 6.00 Build 0)  -->

<svg
   xmlns:dc="http://purl.org/dc/elements/1.1/"
   xmlns:cc="http://creativecommons.org/ns#"
   xmlns:rdf="http://www.w3.org/1999/02/22-rdf-syntax-ns#"
   xmlns:svg="http://www.w3.org/2000/svg"
   xmlns="http://www.w3.org/2000/svg"
   xmlns:sodipodi="http://sodipodi.sourceforge.net/DTD/sodipodi-0.dtd"
   xmlns:inkscape="http://www.inkscape.org/namespaces/inkscape"
   version="1.1"
   id="Capa_1"
   x="0px"
   y="0px"
   width="18.700001"
   height="14"
   viewBox="0 0 18.700001 14"
   xml:space="preserve"
   sodipodi:docname="sv-reverse-path.svg"
   inkscape:version="0.92.4 (5da689c313, 2019-01-14)"><metadata
   id="metadata41"><rdf:RDF><cc:Work
       rdf:about=""><dc:format>image/svg+xml</dc:format><dc:type
         rdf:resource="http://purl.org/dc/dcmitype/StillImage" /><dc:title></dc:title></cc:Work></rdf:RDF></metadata><defs
   id="defs39">
	
</defs><sodipodi:namedview
   pagecolor="#ffffff"
   bordercolor="#666666"
   borderopacity="1"
   objecttolerance="10"
   gridtolerance="10"
   guidetolerance="10"
   inkscape:pageopacity="0"
   inkscape:pageshadow="2"
   inkscape:window-width="1920"
   inkscape:window-height="1017"
   id="namedview37"
   showgrid="false"
   inkscape:zoom="45.254834"
   inkscape:cx="8.4615448"
   inkscape:cy="6.0437553"
   inkscape:window-x="1912"
   inkscape:window-y="-8"
   inkscape:window-maximized="1"
   inkscape:current-layer="g2068"
   showguides="false" />

<g
   id="g6"
   transform="translate(0,-461.49566)">
</g>
<g
   id="g8"
   transform="translate(0,-461.49566)">
</g>
<g
   id="g10"
   transform="translate(0,-461.49566)">
</g>
<g
   id="g12"
   transform="translate(0,-461.49566)">
</g>
<g
   id="g14"
   transform="translate(0,-461.49566)">
</g>
<g
   id="g16"
   transform="translate(0,-461.49566)">
</g>
<g
   id="g18"
   transform="translate(0,-461.49566)">
</g>
<g
   id="g20"
   transform="translate(0,-461.49566)">
</g>
<g
   id="g22"
   transform="translate(0,-461.49566)">
</g>
<g
   id="g24"
   transform="translate(0,-461.49566)">
</g>
<g
   id="g26"
   transform="translate(0,-461.49566)">
</g>
<g
   id="g28"
   transform="translate(0,-461.49566)">
</g>
<g
   id="g30"
   transform="translate(0,-461.49566)">
</g>
<g
   id="g32"
   transform="translate(0,-461.49566)">
</g>
<g
   id="g34"
   transform="translate(0,-461.49566)">
</g>
<g
   id="g2068"
   transform="matrix(0.33334142,0,0,0.33334142,2.2116222,-6.29858e-6)"><g
     id="g2015"
     style="fill:#7f7f7f;fill-opacity:1">
</g><g
     id="g2017"
     style="fill:#7f7f7f;fill-opacity:1">
</g><g
     id="g2019"
     style="fill:#7f7f7f;fill-opacity:1">
</g><g
     id="g2021"
     style="fill:#7f7f7f;fill-opacity:1">
</g><g
     id="g2023"
     style="fill:#7f7f7f;fill-opacity:1">
</g><g
     id="g2025"
     style="fill:#7f7f7f;fill-opacity:1">
</g><g
     id="g2027"
     style="fill:#7f7f7f;fill-opacity:1">
</g><g
     id="g2029"
     style="fill:#7f7f7f;fill-opacity:1">
</g><g
     id="g2031"
     style="fill:#7f7f7f;fill-opacity:1">
</g><g
     id="g2033"
     style="fill:#7f7f7f;fill-opacity:1">
</g><g
     id="g2035"
     style="fill:#7f7f7f;fill-opacity:1">
</g><g
     id="g2037"
     style="fill:#7f7f7f;fill-opacity:1">
</g><g
     id="g2039"
     style="fill:#7f7f7f;fill-opacity:1">
</g><g
     id="g2041"
     style="fill:#7f7f7f;fill-opacity:1">
</g><g
     id="g2043"
     style="fill:#7f7f7f;fill-opacity:1">
</g><g
     id="g2915"
     transform="matrix(0.10253511,0,0,0.10253511,-4.5347566,-5.2496363)"
     style="fill:#7f7f7f;fill-opacity:1"><g
       id="g2831"
       style="fill:#7f7f7f;fill-opacity:1">
	<g
   id="g2829"
   style="fill:#7f7f7f;fill-opacity:1">
		<path
   id="path2827"
   d="M 388.22755,128.004 H 28.483237 c -13.254639,0 -25.4313087,8.346 -27.95228068,20.497 -3.39769222,16.341 9.97469968,30.703 26.87431068,30.703 H 388.22755 c 2.52097,0 4.56772,-1.911 4.56772,-4.267 V 132.27 c 0,-2.354 -2.04675,-4.266 -4.56772,-4.266 z"
   inkscape:connector-curvature="0"
   style="stroke-width:1.03463829;fill:#7f7f7f;fill-opacity:1" />
	</g>
</g><g
       id="g2837"
       style="fill:#7f7f7f;fill-opacity:1">
	<g
   id="g2835"
   style="fill:#7f7f7f;fill-opacity:1">
		<path
   id="path2833"
   d="M 508.98,147.085 398.047,53.218 c -2.534,-2.142 -6.084,-2.628 -9.105,-1.229 -3.012,1.408 -4.941,4.42 -4.941,7.748 V 247.47 c 0,3.328 1.929,6.34 4.941,7.74 1.152,0.538 2.372,0.794 3.593,0.794 1.98,0 3.942,-0.691 5.513,-2.014 l 110.933,-93.867 c 1.92,-1.63 3.021,-4.011 3.021,-6.519 0,-2.508 -1.102,-4.889 -3.022,-6.519 z"
   inkscape:connector-curvature="0"
   style="fill:#7f7f7f;fill-opacity:1" />
	</g>
</g><g
       id="g2843"
       style="fill:#7f7f7f;fill-opacity:1">
	<g
   id="g2841"
   style="fill:#7f7f7f;fill-opacity:1">
		<path
   id="path2839"
   d="m 123.06,256.798 c -3.021,-1.399 -6.571,-0.913 -9.105,1.229 L 3.022,351.893 c -1.92,1.621 -3.021,4.002 -3.021,6.511 0,2.509 1.101,4.89 3.021,6.519 l 110.933,93.867 c 1.57,1.323 3.533,2.014 5.513,2.014 1.22,0 2.441,-0.256 3.593,-0.794 3.012,-1.399 4.941,-4.412 4.941,-7.74 V 264.538 c -0.001,-3.328 -1.929,-6.341 -4.942,-7.74 z"
   inkscape:connector-curvature="0"
   style="fill:#7f7f7f;fill-opacity:1" />
	</g>
</g><g
       id="g2849"
       style="fill:#7f7f7f;fill-opacity:1">
	<g
   id="g2847"
   style="fill:#7f7f7f;fill-opacity:1">
		<path
   id="path2845"
   d="M 511.47277,353.301 C 508.9505,341.15 496.81391,332.804 483.61251,332.804 H 125.05243 c -2.51268,0 -4.55269,1.911 -4.55269,4.267 v 42.667 c 0,2.355 2.03895,4.267 4.55269,4.267 h 359.6345 c 16.84398,-10e-4 30.17342,-14.362 26.78584,-30.704 z"
   inkscape:connector-curvature="0"
   style="stroke-width:1.03293395;fill:#7f7f7f;fill-opacity:1" />
	</g>
</g><g
       id="g2851"
       style="fill:#7f7f7f;fill-opacity:1">
</g><g
       id="g2853"
       style="fill:#7f7f7f;fill-opacity:1">
</g><g
       id="g2855"
       style="fill:#7f7f7f;fill-opacity:1">
</g><g
       id="g2857"
       style="fill:#7f7f7f;fill-opacity:1">
</g><g
       id="g2859"
       style="fill:#7f7f7f;fill-opacity:1">
</g><g
       id="g2861"
       style="fill:#7f7f7f;fill-opacity:1">
</g><g
       id="g2863"
       style="fill:#7f7f7f;fill-opacity:1">
</g><g
       id="g2865"
       style="fill:#7f7f7f;fill-opacity:1">
</g><g
       id="g2867"
       style="fill:#7f7f7f;fill-opacity:1">
</g><g
       id="g2869"
       style="fill:#7f7f7f;fill-opacity:1">
</g><g
       id="g2871"
       style="fill:#7f7f7f;fill-opacity:1">
</g><g
       id="g2873"
       style="fill:#7f7f7f;fill-opacity:1">
</g><g
       id="g2875"
       style="fill:#7f7f7f;fill-opacity:1">
</g><g
       id="g2877"
       style="fill:#7f7f7f;fill-opacity:1">
</g><g
       id="g2879"
       style="fill:#7f7f7f;fill-opacity:1">
</g></g></g></svg>