<?xml version="1.0" encoding="UTF-8" standalone="no"?>
<svg
   xmlns:dc="http://purl.org/dc/elements/1.1/"
   xmlns:cc="http://creativecommons.org/ns#"
   xmlns:rdf="http://www.w3.org/1999/02/22-rdf-syntax-ns#"
   xmlns:svg="http://www.w3.org/2000/svg"
   xmlns="http://www.w3.org/2000/svg"
   xmlns:sodipodi="http://sodipodi.sourceforge.net/DTD/sodipodi-0.dtd"
   xmlns:inkscape="http://www.inkscape.org/namespaces/inkscape"
   width="48"
   height="48"
   preserveAspectRatio="xMidYMid meet"
   viewBox="0 0 48 48"
   version="1.1"
   id="svg877"
   sodipodi:docname="design_rules.svg"
   inkscape:version="1.0.1 (3bc2e813f5, 2020-09-07)">
  <metadata
     id="metadata883">
    <rdf:RDF>
      <cc:Work
         rdf:about="">
        <dc:format>image/svg+xml</dc:format>
        <dc:type
           rdf:resource="http://purl.org/dc/dcmitype/StillImage" />
        <dc:title></dc:title>
      </cc:Work>
    </rdf:RDF>
  </metadata>
  <defs
     id="defs881" />
  <sodipodi:namedview
     pagecolor="#ffffff"
     bordercolor="#666666"
     borderopacity="1"
     objecttolerance="10"
     gridtolerance="10"
     guidetolerance="10"
     inkscape:pageopacity="0"
     inkscape:pageshadow="2"
     inkscape:window-width="1920"
     inkscape:window-height="1017"
     id="namedview879"
     showgrid="false"
     inkscape:zoom="10"
     inkscape:cx="13.4"
     inkscape:cy="29.139821"
     inkscape:window-x="1912"
     inkscape:window-y="-8"
     inkscape:window-maximized="1"
     inkscape:current-layer="svg877" />
  <path
     d="m 29.863038,16.668532 v -1.759108 c 0,-0.161252 -0.121118,-0.293184 -0.26915,-0.293184 H 16.674742 c -0.148031,0 -0.269149,0.131932 -0.269149,0.293184 v 1.759108 c 0,0.16125 0.121118,0.293184 0.269149,0.293184 h 12.919146 c 0.148032,0 0.26915,-0.131934 0.26915,-0.293184 z m -13.188296,3.225029 c -0.148031,0 -0.269149,0.131934 -0.269149,0.293184 v 1.759108 c 0,0.161251 0.121118,0.293184 0.269149,0.293184 h 6.190424 c 0.148033,0 0.269149,-0.131933 0.269149,-0.293184 v -1.759108 c 0,-0.16125 -0.121116,-0.293184 -0.269149,-0.293184 z m 12.649998,4.251176 c -4.013683,0 -7.267019,3.543868 -7.267019,7.915983 0,4.372115 3.253336,7.915983 7.267019,7.915983 4.013683,0 7.26702,-3.543868 7.26702,-7.915983 0,-4.372115 -3.253337,-7.915983 -7.26702,-7.915983 z m 3.616688,11.855651 c -0.965571,1.051799 -2.250758,1.630839 -3.616688,1.630839 -1.36593,0 -2.651116,-0.57904 -3.616688,-1.630839 -0.965572,-1.051801 -1.497141,-2.451757 -1.497141,-3.939668 0,-1.487912 0.531569,-2.887868 1.497141,-3.939668 0.965572,-1.051799 2.250758,-1.630839 3.616688,-1.630839 1.36593,0 2.651117,0.57904 3.616688,1.630839 0.965571,1.0518 1.497142,2.451756 1.497142,3.939668 0,1.487911 -0.531571,2.887867 -1.497142,3.939668 z m -0.622406,-6.724921 h -1.490413 c -0.08747,0 -0.168218,0.04397 -0.218683,0.120938 l -2.136369,3.2177 -0.777169,-1.169073 a 0.2664574,0.29025271 0 0 0 -0.218682,-0.120939 h -1.483683 c -0.218684,0 -0.34653,0.271196 -0.218684,0.46543 l 2.482898,3.741768 c 0.107661,0.161252 0.326344,0.161252 0.434003,0 l 3.8421,-5.790394 c 0.131211,-0.194234 0.0034,-0.46543 -0.215318,-0.46543 z m -10.7996,7.183021 h -7.805317 v -25.80024 h 18.840421 v 12.606936 c 0,0.16125 0.121118,0.293183 0.269149,0.293183 h 1.884043 c 0.148031,0 0.269149,-0.131933 0.269149,-0.293183 V 9.1923248 c 0,-0.6486707 -0.481105,-1.1727382 -1.076595,-1.1727382 H 12.36836 c -0.595492,0 -1.076595,0.5240675 -1.076595,1.1727382 V 37.92441 c 0,0.648671 0.481103,1.17274 1.076595,1.17274 h 9.151062 c 0.148031,0 0.26915,-0.131935 0.26915,-0.293186 v -2.052291 c 0,-0.161253 -0.121119,-0.293185 -0.26915,-0.293185 z"
     fill="#626262"
     id="path873"
     style="fill:#7f7f7f;fill-opacity:1;stroke-width:0.0351138" />
</svg>
