<?xml version="1.0" encoding="UTF-8" standalone="no"?>
<!-- Generator: Adobe Illustrator 16.0.0, SVG Export Plug-In . SVG Version: 6.00 Build 0)  -->

<svg
   xmlns:dc="http://purl.org/dc/elements/1.1/"
   xmlns:cc="http://creativecommons.org/ns#"
   xmlns:rdf="http://www.w3.org/1999/02/22-rdf-syntax-ns#"
   xmlns:svg="http://www.w3.org/2000/svg"
   xmlns="http://www.w3.org/2000/svg"
   xmlns:sodipodi="http://sodipodi.sourceforge.net/DTD/sodipodi-0.dtd"
   xmlns:inkscape="http://www.inkscape.org/namespaces/inkscape"
   version="1.1"
   id="Capa_1"
   x="0px"
   y="0px"
   width="48"
   height="48"
   viewBox="0 0 48 48.000001"
   xml:space="preserve"
   sodipodi:docname="spec_manager.svg"
   inkscape:version="0.92.4 (5da689c313, 2019-01-14)"><metadata
   id="metadata45"><rdf:RDF><cc:Work
       rdf:about=""><dc:format>image/svg+xml</dc:format><dc:type
         rdf:resource="http://purl.org/dc/dcmitype/StillImage" /><dc:title /></cc:Work></rdf:RDF></metadata><defs
   id="defs43" /><sodipodi:namedview
   pagecolor="#ffffff"
   bordercolor="#666666"
   borderopacity="1"
   objecttolerance="10"
   gridtolerance="10"
   guidetolerance="10"
   inkscape:pageopacity="0"
   inkscape:pageshadow="2"
   inkscape:window-width="1920"
   inkscape:window-height="1017"
   id="namedview41"
   showgrid="false"
   inkscape:zoom="10.211146"
   inkscape:cx="33.145536"
   inkscape:cy="17.130166"
   inkscape:window-x="1912"
   inkscape:window-y="-8"
   inkscape:window-maximized="1"
   inkscape:current-layer="Capa_1" />
















<g
   id="g854"
   style="fill:#7f7f7f;fill-opacity:1"
   transform="translate(1.2731186,2.6441694)"><g
     transform="matrix(0.81291114,0,0,0.81291114,12.297135,-263.21259)"
     id="g10"
     style="fill:#7f7f7f;fill-opacity:1">
</g><g
     transform="matrix(0.81291114,0,0,0.81291114,12.297135,-263.21259)"
     id="g12"
     style="fill:#7f7f7f;fill-opacity:1">
</g><g
     transform="matrix(0.81291114,0,0,0.81291114,12.297135,-263.21259)"
     id="g14"
     style="fill:#7f7f7f;fill-opacity:1">
</g><g
     transform="matrix(0.81291114,0,0,0.81291114,12.297135,-263.21259)"
     id="g16"
     style="fill:#7f7f7f;fill-opacity:1">
</g><g
     transform="matrix(0.81291114,0,0,0.81291114,12.297135,-263.21259)"
     id="g18"
     style="fill:#7f7f7f;fill-opacity:1">
</g><g
     transform="matrix(0.81291114,0,0,0.81291114,12.297135,-263.21259)"
     id="g20"
     style="fill:#7f7f7f;fill-opacity:1">
</g><g
     transform="matrix(0.81291114,0,0,0.81291114,12.297135,-263.21259)"
     id="g22"
     style="fill:#7f7f7f;fill-opacity:1">
</g><g
     transform="matrix(0.81291114,0,0,0.81291114,12.297135,-263.21259)"
     id="g24"
     style="fill:#7f7f7f;fill-opacity:1">
</g><g
     transform="matrix(0.81291114,0,0,0.81291114,12.297135,-263.21259)"
     id="g26"
     style="fill:#7f7f7f;fill-opacity:1">
</g><g
     transform="matrix(0.81291114,0,0,0.81291114,12.297135,-263.21259)"
     id="g28"
     style="fill:#7f7f7f;fill-opacity:1">
</g><g
     transform="matrix(0.81291114,0,0,0.81291114,12.297135,-263.21259)"
     id="g30"
     style="fill:#7f7f7f;fill-opacity:1">
</g><g
     transform="matrix(0.81291114,0,0,0.81291114,12.297135,-263.21259)"
     id="g32"
     style="fill:#7f7f7f;fill-opacity:1">
</g><g
     transform="matrix(0.81291114,0,0,0.81291114,12.297135,-263.21259)"
     id="g34"
     style="fill:#7f7f7f;fill-opacity:1">
</g><g
     transform="matrix(0.81291114,0,0,0.81291114,12.297135,-263.21259)"
     id="g36"
     style="fill:#7f7f7f;fill-opacity:1">
</g><g
     transform="matrix(0.81291114,0,0,0.81291114,12.297135,-263.21259)"
     id="g38"
     style="fill:#7f7f7f;fill-opacity:1">
</g><path
     id="path852"
     d="m 11.273438,7.5078125 c -1.6804016,0 -3.0468755,1.366474 -3.0468755,3.0468755 v 19.910156 c 0,1.680401 1.3664739,3.046875 3.0468755,3.046875 h 10.636718 a 10.009439,9.9890852 0 0 1 -0.845703,-2.029297 h -9.791015 c -0.560267,0 -1.015626,-0.457515 -1.015626,-1.017578 V 10.554688 c 0,-0.5602673 0.455359,-1.0156255 1.015626,-1.0156255 h 19.912109 c 0.560063,0 1.015625,0.4553582 1.015625,1.0156255 v 8.292968 a 10.009439,9.9890852 0 0 1 2.03125,0.535156 v -8.828124 c 0,-1.6804015 -1.366475,-3.0468755 -3.046875,-3.0468755 z m 3.302734,5.4843755 c -0.701371,0 -1.271484,0.570307 -1.271484,1.271484 0,0.701371 0.570113,1.269531 1.271484,1.269531 0.70138,0 1.269531,-0.56816 1.269531,-1.269531 0,-0.701177 -0.568151,-1.271484 -1.269531,-1.271484 z m 3.808594,0.253906 v 2.033203 h 10.259765 v -2.033203 z m -3.808594,5.841797 c -0.701371,0 -1.271484,0.568151 -1.271484,1.269531 0,0.701371 0.570113,1.271484 1.271484,1.271484 0.70138,0 1.269531,-0.570113 1.269531,-1.271484 0,-0.70138 -0.568151,-1.269531 -1.269531,-1.269531 z m 3.808594,0.253906 V 21.375 h 5.503906 a 10.009439,9.9890852 0 0 1 3.324219,-2.033203 z m -3.808594,6.197265 c -0.701371,0 -1.271484,0.568161 -1.271484,1.269532 0,0.701177 0.570113,1.269531 1.271484,1.269531 0.70138,0 1.269531,-0.568354 1.269531,-1.269531 0,-0.701371 -0.568151,-1.269532 -1.269531,-1.269532 z m 3.808594,0.253907 v 2.03125 h 2.322265 a 10.009439,9.9890852 0 0 1 0.394531,-2.03125 z"
     style="fill:#7f7f7f;fill-opacity:1;stroke-width:0.05080695"
     inkscape:connector-curvature="0" /><g
     transform="matrix(0.04309686,0,0,0.04309686,51.539828,25.693073)"
     id="g8"
     style="fill:#7f7f7f;fill-opacity:1"><g
       id="g6"
       style="fill:#7f7f7f;fill-opacity:1"><g
         id="g4"
         style="fill:#7f7f7f;fill-opacity:1"><path
           style="fill:#7f7f7f;fill-opacity:1;stroke-width:1.04032183"
           inkscape:connector-curvature="0"
           id="path2"
           d="m -330.37544,30.623834 -1.83466,-0.650598 -7.16551,-17.016189 0.77704,-1.748416 c 21.70723,-48.977448 20.2105,-50.438439 16.61002,-53.989229 l -28.95514,-28.101253 c -1.18382,-1.168378 -3.26255,-1.990185 -5.05445,-1.990185 -1.62919,0 -6.56369,0 -49.32834,19.268897 l -1.71472,0.765775 -17.64364,-7.068375 -0.7082,-1.747379 c -20.11037,-49.538812 -22.17033,-49.538812 -27.17471,-49.538812 h -40.8914 c -4.98561,0 -7.25625,0 -25.90431,49.624936 l -0.70195,1.806524 -17.55186,7.118181 -1.67821,-0.694178 c -28.94574,-12.140339 -45.84676,-18.296632 -50.25245,-18.296632 -1.78773,0 -3.87376,0.797942 -5.06279,1.963207 l -28.98226,28.182188 c -3.67662,3.60786 -5.20151,5.118658 17.6426,53.074034 l 0.83963,1.778507 -7.17699,16.997513 -1.75644,0.6755 c -50.9617,19.59264 -50.9617,21.502927 -50.9617,26.60602 v 39.863892 c 0,5.116578 0,7.241658 51.06288,25.446978 l 1.82527,0.64126 7.17803,16.94771 -0.77079,1.73181 c -21.70722,49.00028 -20.33044,50.32638 -16.63504,53.983 l 28.91133,28.13965 c 1.21198,1.15904 3.30948,1.98707 5.09825,1.98707 1.61876,0 6.54179,0 49.3346,-19.25956 l 1.71368,-0.79794 17.65511,7.10366 0.6863,1.75671 c 20.12289,49.52221 22.19014,49.52221 27.19766,49.52221 h 40.90391 c 5.1358,0 7.26564,0 25.9283,-49.65814 l 0.6957,-1.80756 17.58001,-7.07045 1.673,0.67862 c 28.92175,12.17458 45.81442,18.31842 50.19195,18.31842 1.77209,0 3.87689,-0.77304 5.08574,-1.96425 l 29.02919,-28.24341 c 3.6516,-3.62653 5.17336,-5.10931 -17.71143,-53.01903 l -0.8511,-1.79926 7.16447,-16.92384 1.71054,-0.6672 c 51.04306,-19.69537 51.04306,-21.615 51.04306,-26.724315 V 55.989879 c -0.001,-5.115545 -0.001,-7.228171 -51.07018,-25.366045 z M -472.15661,141.41117 c -36.54516,0 -66.27525,-29.01126 -66.27525,-64.64471 0,-35.634488 29.73114,-64.607355 66.27525,-64.607355 36.52951,0 66.25438,28.979092 66.25438,64.607355 10e-4,35.62723 -29.72383,64.64471 -66.25438,64.64471 z" /></g></g></g></g></svg>
