<?xml version="1.0" encoding="UTF-8" standalone="no"?>
<svg
   xmlns:dc="http://purl.org/dc/elements/1.1/"
   xmlns:cc="http://creativecommons.org/ns#"
   xmlns:rdf="http://www.w3.org/1999/02/22-rdf-syntax-ns#"
   xmlns:svg="http://www.w3.org/2000/svg"
   xmlns="http://www.w3.org/2000/svg"
   xmlns:sodipodi="http://sodipodi.sourceforge.net/DTD/sodipodi-0.dtd"
   xmlns:inkscape="http://www.inkscape.org/namespaces/inkscape"
   width="40"
   height="40"
   viewBox="0 0 10.583333 10.583334"
   version="1.1"
   id="svg8"
   inkscape:version="1.0.2 (e86c870879, 2021-01-15, custom)"
   sodipodi:docname="markup.svg">
  <defs
     id="defs2" />
  <sodipodi:namedview
     id="base"
     pagecolor="#ffffff"
     bordercolor="#666666"
     borderopacity="1.0"
     inkscape:pageopacity="0.0"
     inkscape:pageshadow="2"
     inkscape:zoom="1.979899"
     inkscape:cx="-10.354085"
     inkscape:cy="29.901846"
     inkscape:document-units="mm"
     inkscape:current-layer="layer1"
     inkscape:document-rotation="0"
     showgrid="false"
     units="px"
     inkscape:pagecheckerboard="true"
     inkscape:window-width="1267"
     inkscape:window-height="1040"
     inkscape:window-x="1945"
     inkscape:window-y="0"
     inkscape:window-maximized="0" />
  <metadata
     id="metadata5">
    <rdf:RDF>
      <cc:Work
         rdf:about="">
        <dc:format>image/svg+xml</dc:format>
        <dc:type
           rdf:resource="http://purl.org/dc/dcmitype/StillImage" />
        <dc:title></dc:title>
      </cc:Work>
    </rdf:RDF>
  </metadata>
  <g
     inkscape:label="Layer 1"
     inkscape:groupmode="layer"
     id="layer1">
    <g
       style="fill:#eeeeee;fill-opacity:1"
       id="g885"
       transform="matrix(0.40539812,0,0,0.40539812,0.60340752,0.3977584)">
      <path
         d="M 6.75,3.935 A 2.75,2.75 0 0 0 4,6.685 v 9.565 a 0.75,0.75 0 1 0 1.5,0 V 6.685 c 0,-0.69 0.56,-1.25 1.25,-1.25 h 9.5 c 0.69,0 1.25,0.56 1.25,1.25 v 4.593 c 0.473,-0.209 0.99,-0.3 1.5,-0.273 v -4.32 a 2.75,2.75 0 0 0 -2.75,-2.75 z m 13.556,8.622 -0.129,-0.105 -0.003,-0.003 a 2.263,2.263 0 0 0 -2.951,0.212 l -3.803,3.87 c -0.236,0.24 -0.408,0.529 -0.503,0.845 L 12.33,19.328 A 5.044,5.044 0 0 1 10.726,19.322 0.037,0.037 0 0 1 10.698,19.27 l 0.034,-0.072 0.004,-0.007 c 0.065,-0.138 0.18,-0.382 0.217,-0.633 0.02,-0.14 0.027,-0.334 -0.049,-0.54 A 1.001,1.001 0 0 0 10.482,17.506 C 10.158,17.307 9.755,17.292 9.409,17.312 A 7.901,7.901 0 0 0 8.378,17.456 C 7.916,17.546 7.477,17.752 7.039,17.958 6.463,18.23 5.889,18.5 5.268,18.5 5.045,18.5 4.831,18.464 4.63,18.396 4.507,18.356 4.372,18.455 4.403,18.581 4.46,18.81 4.565,19.119 4.795,19.356 a 1.081,1.081 0 0 0 1.106,0.284 c 1.454,-0.427 2.42,-0.66 3.048,-0.764 0.132,-0.022 0.23,0.111 0.19,0.239 -0.063,0.2 -0.153,0.577 0.034,0.96 0.202,0.415 0.6,0.589 0.944,0.66 1.143,0.235 2.13,0.204 3.336,-0.112 0.052,-0.009 0.105,-0.021 0.157,-0.038 l 0.117,-0.038 a 13.8,13.8 0 0 0 0.529,-0.165 0.774,0.774 0 0 0 0.08,-0.032 l 1.387,-0.449 c 0.338,-0.109 0.643,-0.296 0.887,-0.545 l 3.795,-3.86 c 0.786,-0.801 0.783,-2.035 0.018,-2.826 z"
         fill="#212121"
         id="path874"
         style="fill:#eeeeee;fill-opacity:1" />
    </g>
    <text
       xml:space="preserve"
       style="font-style:normal;font-variant:normal;font-weight:normal;font-stretch:normal;font-size:3.8278px;line-height:1.25;font-family:Tahoma;-inkscape-font-specification:Tahoma;fill:#eeeff0;fill-opacity:1;stroke:none;stroke-width:0.287084"
       x="4.1066809"
       y="6.4096913"
       id="text976"><tspan
         sodipodi:role="line"
         id="tspan974"
         x="4.1066809"
         y="6.4096913"
         style="font-style:normal;font-variant:normal;font-weight:normal;font-stretch:normal;font-size:3.8278px;font-family:Tahoma;-inkscape-font-specification:Tahoma;fill:#eeeff0;fill-opacity:1;stroke-width:0.287084">A</tspan></text>
  </g>
</svg>
