<?xml version="1.0" encoding="UTF-8" standalone="no"?>
<!-- Created with Inkscape (http://www.inkscape.org/) -->

<svg
   width="40"
   height="40"
   viewBox="0 0 10.583333 10.583333"
   version="1.1"
   id="svg110"
   xml:space="preserve"
   sodipodi:docname="order.svg"
   inkscape:version="1.2 (dc2aedaf03, 2022-05-15)"
   xmlns:inkscape="http://www.inkscape.org/namespaces/inkscape"
   xmlns:sodipodi="http://sodipodi.sourceforge.net/DTD/sodipodi-0.dtd"
   xmlns="http://www.w3.org/2000/svg"
   xmlns:svg="http://www.w3.org/2000/svg"><sodipodi:namedview
     id="namedview112"
     pagecolor="#ffffff"
     bordercolor="#666666"
     borderopacity="1.0"
     inkscape:showpageshadow="2"
     inkscape:pageopacity="0.0"
     inkscape:pagecheckerboard="true"
     inkscape:deskcolor="#d1d1d1"
     inkscape:document-units="mm"
     showgrid="true"
     inkscape:zoom="10.175"
     inkscape:cx="21.572482"
     inkscape:cy="24.766585"
     inkscape:window-width="1920"
     inkscape:window-height="1017"
     inkscape:window-x="1912"
     inkscape:window-y="-8"
     inkscape:window-maximized="1"
     inkscape:current-layer="layer1" /><defs
     id="defs107" /><g
     inkscape:label="Layer 1"
     inkscape:groupmode="layer"
     id="layer1"><path
       id="rect216"
       style="fill:#ffffff;stroke:#7f7f7f;stroke-width:0;stroke-linecap:round;stroke-dasharray:none"
       d="M 0 0 L 0 10.583333 L 10.583333 10.583333 L 10.583333 0 L 0 0 z M 4.7883382 1.984375 L 5.826001 1.984375 L 5.826001 3.0225545 L 4.7883382 3.0225545 L 4.7883382 1.984375 z M 5.9154012 2.3941691 A 0.09980189 0.09980189 0 0 1 5.9670776 2.3962362 L 6.0616455 2.4256917 L 6.1572469 2.4582479 L 6.2518148 2.4923543 L 6.3443156 2.5290446 L 6.4342326 2.5672852 L 6.5241496 2.607076 L 6.6125163 2.6515177 L 6.6993327 2.6954427 L 6.7231038 2.7088786 A 0.09980189 0.09980189 0 0 1 6.7613444 2.8458211 A 0.09980189 0.09980189 0 0 1 6.6244019 2.8825114 L 6.6037313 2.8706258 L 6.5225993 2.8282511 L 6.4388835 2.7884603 L 6.3546509 2.7502197 L 6.2693848 2.7130127 L 6.1810181 2.679423 L 6.0926514 2.6468669 L 6.0011841 2.615861 L 5.9081665 2.5879557 A 0.09980189 0.09980189 0 0 1 5.8420207 2.4628988 A 0.09980189 0.09980189 0 0 1 5.9154012 2.3941691 z M 4.7061727 2.4308594 A 0.09980189 0.09980189 0 0 1 4.7816203 2.4959717 A 0.09980189 0.09980189 0 0 1 4.7196086 2.6230957 L 4.6121216 2.659786 L 4.5087687 2.6980265 L 4.4085164 2.7393677 L 4.3113647 2.7817424 L 4.2173136 2.8261841 L 4.1258464 2.8732096 L 4.0374797 2.9217855 L 4.0286947 2.9279867 A 0.09980189 0.09980189 0 0 1 3.8917521 2.8938802 A 0.09980189 0.09980189 0 0 1 3.9253418 2.7569377 L 3.9387777 2.749703 L 4.0317952 2.6980265 L 4.1289469 2.6479004 L 4.2276489 2.6008748 L 4.330485 2.5548828 L 4.4369385 2.5125081 L 4.5444255 2.471167 L 4.655013 2.4344767 A 0.09980189 0.09980189 0 0 1 4.7061727 2.4308594 z M 7.0212769 2.911967 A 0.09980189 0.09980189 0 0 1 7.0693359 2.9310872 L 7.1060262 2.9589925 L 7.1830241 3.0194539 L 7.2579549 3.0814657 L 7.3303019 3.1476115 L 7.4010986 3.2158244 L 7.4687948 3.2861043 L 7.5364909 3.3600016 L 7.6010864 3.4364827 L 7.6558634 3.5057292 A 0.09980189 0.09980189 0 0 1 7.639327 3.6457723 A 0.09980189 0.09980189 0 0 1 7.4998006 3.6297526 L 7.4465739 3.5620565 L 7.3861125 3.4912598 L 7.3241007 3.4235636 L 7.2595052 3.356901 L 7.1933594 3.2938558 L 7.1266968 3.2318441 L 7.0559001 3.1744832 L 6.9856201 3.1181559 L 6.9499634 3.0918009 A 0.09980189 0.09980189 0 0 1 6.9292928 2.9517578 A 0.09980189 0.09980189 0 0 1 7.0212769 2.911967 z M 3.6307861 2.9662272 A 0.09980189 0.09980189 0 0 1 3.7238037 3.0029175 A 0.09980189 0.09980189 0 0 1 3.7072673 3.1429606 L 3.6395711 3.1961873 L 3.5687744 3.2566488 L 3.5010783 3.3181437 L 3.4349325 3.383256 L 3.3713704 3.4494019 L 3.3093587 3.5155477 L 3.2519979 3.5863444 L 3.1961873 3.6571411 L 3.1698324 3.6927979 A 0.09980189 0.09980189 0 0 1 3.0297892 3.7129517 A 0.09980189 0.09980189 0 0 1 3.0091187 3.5734253 L 3.0370239 3.5362183 L 3.0974854 3.4597371 L 3.1594971 3.3848063 L 3.2256429 3.3124593 L 3.293339 3.2416626 L 3.3641357 3.1739665 L 3.4375163 3.1062703 L 3.5145142 3.041158 L 3.5837606 2.9868978 A 0.09980189 0.09980189 0 0 1 3.6307861 2.9662272 z M 7.7984904 3.7992513 A 0.09980189 0.09980189 0 0 1 7.8858236 3.8478271 L 7.8930583 3.8607463 L 7.9447347 3.9537638 L 7.9948608 4.0509155 L 8.0418864 4.1496175 L 8.0873617 4.2529704 L 8.1302531 4.3589071 L 8.1715942 4.466394 L 8.2082845 4.5769816 A 0.09980189 0.09980189 0 0 1 8.1462728 4.7035889 A 0.09980189 0.09980189 0 0 1 8.0196655 4.6420939 L 7.9829753 4.5346069 L 7.9447347 4.4312541 L 7.9033936 4.3310018 L 7.8605021 4.2338501 L 7.8165771 4.1392822 L 7.7690348 4.0483317 L 7.720459 3.9594482 L 7.7147746 3.9506632 A 0.09980189 0.09980189 0 0 1 7.7483643 3.8137207 A 0.09980189 0.09980189 0 0 1 7.7984904 3.7992513 z M 2.8732096 3.867981 A 0.09980189 0.09980189 0 0 1 2.9233358 3.8814168 A 0.09980189 0.09980189 0 0 1 2.9605428 4.0183594 L 2.9486572 4.0390299 L 2.9057658 4.1196452 L 2.8659749 4.2038778 L 2.8277344 4.2875936 L 2.7910441 4.3733765 L 2.7569377 4.4617432 L 2.7243815 4.5501099 L 2.6938924 4.6415771 L 2.6654704 4.734078 A 0.09980189 0.09980189 0 0 1 2.5404134 4.8007406 A 0.09980189 0.09980189 0 0 1 2.4742676 4.6751668 L 2.5037231 4.5811157 L 2.5357625 4.4855143 L 2.569869 4.3909465 L 2.6065592 4.2979289 L 2.6447998 4.2085286 L 2.6845907 4.1186117 L 2.7290324 4.030245 L 2.7734741 3.9429118 L 2.7863932 3.9196574 A 0.09980189 0.09980189 0 0 1 2.8732096 3.867981 z M 7.5607788 4.7769694 L 8.5989583 4.7769694 L 8.5989583 5.8042969 L 7.5607788 5.8042969 L 7.5607788 4.7769694 z M 1.984375 4.8121094 L 3.0225545 4.8121094 L 3.0225545 5.8389201 L 1.984375 5.8389201 L 1.984375 4.8121094 z M 5.4937215 4.961971 A 0.09980189 0.09980189 0 0 1 5.53868 4.986259 A 0.09980189 0.09980189 0 0 1 5.5433309 5.1263021 L 5.4208577 5.2560099 L 5.5464315 5.3753825 L 5.5671021 5.3960531 A 0.09980189 0.09980189 0 0 1 5.5671021 5.5360962 A 0.09980189 0.09980189 0 0 1 5.4255086 5.5360962 L 5.4079386 5.5180094 L 5.2839152 5.4001872 L 5.1604085 5.529895 L 5.139738 5.5505656 A 0.09980189 0.09980189 0 0 1 4.9981445 5.5505656 A 0.09980189 0.09980189 0 0 1 4.9981445 5.4089722 L 5.0172648 5.3898519 L 5.1381877 5.2632446 L 5.0053792 5.1366374 A 0.09980189 0.09980189 0 0 1 5.0027954 4.9950439 A 0.09980189 0.09980189 0 0 1 5.1438721 4.9909098 L 5.2766805 5.1175171 L 5.3991536 4.9893595 A 0.09980189 0.09980189 0 0 1 5.4937215 4.961971 z M 8.0780599 5.8384033 A 0.09980189 0.09980189 0 0 1 8.1297363 5.8404704 A 0.09980189 0.09980189 0 0 1 8.1958822 5.9660441 L 8.1664266 6.0600952 L 8.1343872 6.1556966 L 8.1002808 6.2502645 L 8.0635905 6.3427653 L 8.0253499 6.4326823 L 7.9855591 6.5225993 L 7.9411174 6.610966 L 7.8971924 6.6982992 L 7.8837565 6.7215535 A 0.09980189 0.09980189 0 0 1 7.746814 6.7597941 A 0.09980189 0.09980189 0 0 1 7.7096069 6.6228516 L 7.7214925 6.602181 L 7.764384 6.521049 L 7.8041748 6.4373332 L 7.8424154 6.3531006 L 7.8791056 6.2678345 L 7.9132121 6.1794678 L 7.9457682 6.0911011 L 7.9762573 5.9996338 L 8.0046794 5.9066162 A 0.09980189 0.09980189 0 0 1 8.0780599 5.8384033 z M 2.5533325 5.8673421 A 0.09980189 0.09980189 0 0 1 2.6287801 5.9329712 L 2.6654704 6.0404582 L 2.7037109 6.1432943 L 2.7450521 6.2435465 L 2.7879435 6.3406982 L 2.8318685 6.4352661 L 2.8794108 6.5267334 L 2.9279867 6.6151001 L 2.9336711 6.6238851 A 0.09980189 0.09980189 0 0 1 2.9000814 6.7608276 A 0.09980189 0.09980189 0 0 1 2.7626221 6.7267212 L 2.7553874 6.7138021 L 2.7037109 6.6207845 L 2.6535848 6.5236328 L 2.6065592 6.4249308 L 2.561084 6.321578 L 2.5181925 6.2156413 L 2.4768514 6.1081543 L 2.4401611 5.9975667 A 0.09980189 0.09980189 0 0 1 2.5021729 5.8709595 A 0.09980189 0.09980189 0 0 1 2.5533325 5.8673421 z M 3.0561442 6.9086222 A 0.09980189 0.09980189 0 0 1 3.148645 6.9447957 L 3.2018717 7.0130086 L 3.2623332 7.0832886 L 3.3243449 7.1515015 L 3.3889404 7.2176473 L 3.455603 7.2812093 L 3.5217489 7.3427043 L 3.5925456 7.4005819 L 3.6633423 7.4563924 L 3.6984823 7.4827474 A 0.09980189 0.09980189 0 0 1 3.7191528 7.6227905 A 0.09980189 0.09980189 0 0 1 3.5791097 7.6434611 L 3.5424194 7.6155558 L 3.4654215 7.5550944 L 3.3904907 7.4930827 L 3.3181437 7.4269368 L 3.247347 7.3592407 L 3.1796509 7.288444 L 3.1119548 7.2145467 L 3.0473592 7.1380656 L 2.9925822 7.0688192 A 0.09980189 0.09980189 0 0 1 3.0091187 6.928776 A 0.09980189 0.09980189 0 0 1 3.0561442 6.9086222 z M 7.5923014 6.9086222 A 0.09980189 0.09980189 0 0 1 7.6403605 6.9277425 A 0.09980189 0.09980189 0 0 1 7.6610311 7.0677856 L 7.6331258 7.1049927 L 7.5726644 7.1814738 L 7.5106527 7.2564046 L 7.4445068 7.3287516 L 7.3768107 7.3995483 L 7.306014 7.4672445 L 7.2326335 7.5349406 L 7.1556356 7.6000529 L 7.0863892 7.6543132 A 0.09980189 0.09980189 0 0 1 6.946346 7.6382935 A 0.09980189 0.09980189 0 0 1 6.9628825 7.4982503 L 7.0305786 7.4450236 L 7.1013753 7.3845622 L 7.1690715 7.3230672 L 7.2352173 7.2579549 L 7.2987793 7.1918091 L 7.360791 7.1251465 L 7.4181519 7.0548665 L 7.4739624 6.9840698 L 7.5008341 6.9484131 A 0.09980189 0.09980189 0 0 1 7.5923014 6.9086222 z M 4.8131429 7.5607788 L 5.8508057 7.5607788 L 5.8508057 8.5881063 L 4.8131429 8.5881063 L 4.8131429 7.5607788 z M 3.9739176 7.6786011 A 0.09980189 0.09980189 0 0 1 4.0240438 7.6920369 L 4.0447144 7.7039225 L 4.1258464 7.746814 L 4.2095622 7.7866048 L 4.2937948 7.8248454 L 4.3790609 7.8615356 L 4.4674276 7.8956421 L 4.5557943 7.9276815 L 4.6472616 7.9586873 L 4.7402791 7.9865926 A 0.09980189 0.09980189 0 0 1 4.806425 8.1121663 A 0.09980189 0.09980189 0 0 1 4.681368 8.1783122 L 4.5868001 8.1488566 L 4.4911987 8.1163005 L 4.3971476 8.0827108 L 4.30413 8.0455037 L 4.2142131 8.0072632 L 4.1242961 7.9674723 L 4.0359294 7.9235474 L 3.949113 7.8791056 L 3.9253418 7.8661865 A 0.09980189 0.09980189 0 0 1 3.8871012 7.7287272 A 0.09980189 0.09980189 0 0 1 3.9739176 7.6786011 z M 6.6910645 7.6987549 A 0.09980189 0.09980189 0 0 1 6.7783976 7.7473307 A 0.09980189 0.09980189 0 0 1 6.7448079 7.8842733 L 6.7313721 7.891508 L 6.6388713 7.9431844 L 6.5412028 7.9933105 L 6.4425008 8.0403361 L 6.3396647 8.0863281 L 6.2332113 8.1287028 L 6.1257243 8.1700439 L 6.0151367 8.2067342 A 0.09980189 0.09980189 0 0 1 5.8885295 8.1452393 A 0.09980189 0.09980189 0 0 1 5.9505412 8.0181152 L 6.0580282 7.981425 L 6.161381 7.9431844 L 6.2616333 7.9018433 L 6.358785 7.8589518 L 6.4528361 7.8150269 L 6.5443034 7.7680013 L 6.6326701 7.7194255 L 6.6414551 7.7132243 A 0.09980189 0.09980189 0 0 1 6.6910645 7.6987549 z " /><g
       id="g4830"
       style="fill:#000000"
       transform="matrix(0.51530952,0,0,0.51530952,-48.613682,-240.8886)"><path
         id="path506"
         sodipodi:nodetypes="sccccscccccccccccccccccccc"
         inkscape:connector-curvature="0"
         style="color:#000000;fill:#000000"
         d="m 139.16,289.02 c -1.2148,-0.82153 -2.4093,-1.383 -3.6056,-1.8664 l -1.2844,1.7675 7.3028,5.3067 1.2844,-1.7675 c -1.2539,-1.5418 -2.4824,-2.6188 -3.6972,-3.4403 z m -5.7164,1.0383 -1.2844,1.7675 7.3028,5.3067 1.2844,-1.7675 z m -2.2202,3.0554 -17.334,23.854 3.9697,1.2896 16.735,-22.702 z m 4.0836,3.0131 -16.643,22.656 2.2523,3.5376 17.61,-23.9 z m -21.862,21.863 -1.8834,9.5262 8.3239,-4.591 -2.3632,-3.5249 z" /><path
         id="path503"
         sodipodi:nodetypes="ssssssccssssssccs"
         style="fill:#000000"
         inkscape:connector-curvature="0"
         d="m 101.62,290.19 c -4.0274,0 -7.2812,3.2539 -7.2812,7.2812 v 44.531 c 0,4.0274 3.2539,7.25 7.2812,7.25 h 29.75 c 4.0274,0 7.2812,-3.2226 7.2812,-7.25 v -34.844 l -4.4375,6 v 27.156 c 0,2.4813 -1.9874,4.5 -4.4688,4.5 h -26.5 c -2.4813,0 -4.4688,-2.0187 -4.4688,-4.5 v -41.188 c 0,-2.4813 1.9874,-4.4688 4.4688,-4.4688 h 21.127 l 2.8419,-4.4688 z" /></g></g></svg>
