<svg width="48" height="48" viewBox="0 0 48 48" xmlns="http://www.w3.org/2000/svg" xmlns:xlink="http://www.w3.org/1999/xlink">
    <path id="Shape" fill="#7F7F7F" fill-rule="evenodd" stroke="none" d="M 3.611549 38.325001 C 3.611549 38.325001 3.225201 35.383636 6.539446 34.742264 C 9.85369 34.100895 10.841561 34.009228 11.065382 33.390842 C 11.289202 32.772457 11.331614 31.588943 11.331614 31.588943 C 11.331614 31.588943 10.267694 30.779003 9.800782 29.772968 C 9.333869 28.766935 9.201761 28.196308 9.201761 28.196308 C 9.201761 28.196308 8.811416 28.13736 8.677618 27.548752 C 8.543819 26.960144 8.037388 26.351986 8.136835 25.929859 C 8.254662 25.429714 8.644339 25.732777 8.644339 25.732777 C 8.644339 25.732777 8.625813 23.761759 9.925578 22.71319 C 10.189546 22.500238 11.048742 22.579454 11.048742 22.579454 C 11.048742 22.579454 11.181858 21.678507 13.295071 21.678507 C 15.10523 21.678507 16.358618 22.264311 17.147108 23.543753 C 17.935598 24.823195 17.704531 25.704622 17.704531 25.704622 C 17.704531 25.704622 18.258118 25.459835 18.253633 26.155096 C 18.249147 26.850357 17.792603 27.270863 17.73781 27.541714 C 17.683016 27.812565 17.635405 28.194054 17.213667 28.224463 C 17.053576 28.831272 17.028421 29.261869 16.414972 30.138979 C 15.801521 31.01609 15.050535 31.574867 15.050535 31.574867 C 15.050535 31.574867 15.037991 32.877541 15.308447 33.376762 C 15.578903 33.875988 19.730028 34.77655 20.774513 35.425014 C 21.818996 36.073479 21.714643 38.324944 21.714643 38.324944 L 3.611549 38.325001 Z M 25.844011 38.325001 C 25.844011 38.325001 25.457664 35.383636 28.771908 34.742264 C 32.086151 34.100895 33.074024 34.009228 33.297844 33.390842 C 33.521664 32.772457 33.564075 31.588943 33.564075 31.588943 C 33.564075 31.588943 32.500156 30.779003 32.033245 29.772968 C 31.566332 28.766935 31.434223 28.196308 31.434223 28.196308 C 31.434223 28.196308 31.043879 28.13736 30.91008 27.548752 C 30.776281 26.960144 30.26985 26.351986 30.369297 25.929859 C 30.487123 25.429714 30.876801 25.732777 30.876801 25.732777 C 30.876801 25.732777 30.858276 23.761759 32.158039 22.71319 C 32.422009 22.500238 33.281204 22.579454 33.281204 22.579454 C 33.281204 22.579454 33.414322 21.678507 35.527534 21.678507 C 37.337692 21.678507 38.59108 22.264311 39.37957 23.543753 C 40.16806 24.823195 39.936993 25.704622 39.936993 25.704622 C 39.936993 25.704622 40.490582 25.459835 40.486095 26.155096 C 40.481609 26.850357 40.025066 27.270863 39.970272 27.541714 C 39.915478 27.812565 39.867867 28.194054 39.446129 28.224463 C 39.286037 28.831272 39.260883 29.261869 38.647434 30.138979 C 38.033985 31.01609 37.282997 31.574867 37.282997 31.574867 C 37.282997 31.574867 37.270454 32.877541 37.540909 33.376762 C 37.811367 33.875988 41.96249 34.77655 43.006977 35.425014 C 44.05146 36.073479 43.947105 38.324944 43.947105 38.324944 L 25.844011 38.325001 Z"/>
    <path id="Shape-copy" fill="#7F7F7F" fill-rule="evenodd" stroke="#ffffff" stroke-linecap="round" stroke-linejoin="round" d="M 13.663631 36 C 13.663631 36 13.219023 31.879192 17.033054 30.98064 C 20.847086 30.08209 21.983929 29.953665 22.241501 29.087317 C 22.499073 28.220968 22.54788 26.562885 22.54788 26.562885 C 22.54788 26.562885 21.323523 25.428169 20.7862 24.01873 C 20.248877 22.609291 20.096848 21.809853 20.096848 21.809853 C 20.096848 21.809853 19.647638 21.727266 19.493662 20.902634 C 19.339687 20.078003 18.756886 19.225983 18.87133 18.634588 C 19.006924 17.933893 19.455364 18.358479 19.455364 18.358479 C 19.455364 18.358479 19.434046 15.597111 20.929815 14.128082 C 21.233589 13.829739 22.222353 13.940723 22.222353 13.940723 C 22.222353 13.940723 22.375542 12.678505 24.807426 12.678505 C 26.890558 12.678505 28.332956 13.49921 29.240351 15.291687 C 30.147745 17.084167 29.881832 18.319035 29.881832 18.319035 C 29.881832 18.319035 30.5189 17.976093 30.513739 18.950144 C 30.508579 19.924192 29.983187 20.513315 29.92013 20.892773 C 29.857073 21.272232 29.802282 21.806694 29.316946 21.849297 C 29.132715 22.699429 29.103767 23.302687 28.397808 24.531506 C 27.691849 25.760324 26.827614 26.543163 26.827614 26.543163 C 26.827614 26.543163 26.813179 28.368191 27.12442 29.067595 C 27.435661 29.766998 32.212776 31.028675 33.414768 31.937164 C 34.61676 32.845654 34.49667 35.999924 34.49667 35.999924 L 13.663631 36 Z"/>
</svg>
