<?xml version="1.0" encoding="UTF-8" standalone="no"?>
<!-- Generator: Adobe Illustrator 19.0.0, SVG Export Plug-In . SVG Version: 6.00 Build 0)  -->

<svg
   xmlns:dc="http://purl.org/dc/elements/1.1/"
   xmlns:cc="http://creativecommons.org/ns#"
   xmlns:rdf="http://www.w3.org/1999/02/22-rdf-syntax-ns#"
   xmlns:svg="http://www.w3.org/2000/svg"
   xmlns="http://www.w3.org/2000/svg"
   xmlns:sodipodi="http://sodipodi.sourceforge.net/DTD/sodipodi-0.dtd"
   xmlns:inkscape="http://www.inkscape.org/namespaces/inkscape"
   version="1.1"
   id="Capa_1"
   x="0px"
   y="0px"
   viewBox="0 0 48 48"
   xml:space="preserve"
   sodipodi:docname="validation.svg"
   width="48"
   height="48"
   inkscape:version="0.92.4 (5da689c313, 2019-01-14)"><metadata
   id="metadata47"><rdf:RDF><cc:Work
       rdf:about=""><dc:format>image/svg+xml</dc:format><dc:type
         rdf:resource="http://purl.org/dc/dcmitype/StillImage" /><dc:title></dc:title></cc:Work></rdf:RDF></metadata><defs
   id="defs45" /><sodipodi:namedview
   pagecolor="#ffffff"
   bordercolor="#666666"
   borderopacity="1"
   objecttolerance="10"
   gridtolerance="10"
   guidetolerance="10"
   inkscape:pageopacity="0"
   inkscape:pageshadow="2"
   inkscape:window-width="1920"
   inkscape:window-height="1017"
   id="namedview43"
   showgrid="false"
   inkscape:zoom="7.375"
   inkscape:cx="41.220339"
   inkscape:cy="28.749353"
   inkscape:window-x="-8"
   inkscape:window-y="-8"
   inkscape:window-maximized="1"
   inkscape:current-layer="Capa_1" />
<g
   transform="matrix(-0.05273448,0,0,0.05273448,36.574385,10.200599)"
   id="g10"
   style="fill:#7f7f7f;fill-opacity:1">
	<g
   id="g8"
   style="fill:#7f7f7f;fill-opacity:1">
		<g
   id="g6"
   style="fill:#7f7f7f;fill-opacity:1">
			
			<path
   d="M 489.667,84.333 H 236.185 L 210.081,32.126 C 206.467,24.899 199.08,20.333 191,20.333 H 20.333 C 8.551,20.333 -1,29.885 -1,41.667 v 426.667 c 0,11.782 9.551,21.333 21.333,21.333 h 469.333 c 11.782,0 21.333,-9.551 21.333,-21.333 v -298.667 -64 C 511,93.885 501.449,84.333 489.667,84.333 Z M 468.333,127 v 21.333 H 268.185 L 257.518,127 Z M 41.667,447 V 63 h 136.149 l 26.104,52.207 32,64 c 3.613,7.228 11,11.793 19.08,11.793 h 213.333 v 256 z"
   id="path4"
   inkscape:connector-curvature="0"
   style="fill:#7f7f7f;fill-opacity:1" />
		</g>
	</g>
</g>
<g
   id="g12"
   transform="matrix(0.05273448,0,0,0.05273448,9.6271187,10.147864)">
</g>
<g
   id="g14"
   transform="matrix(0.05273448,0,0,0.05273448,9.6271187,10.147864)">
</g>
<g
   id="g16"
   transform="matrix(0.05273448,0,0,0.05273448,9.6271187,10.147864)">
</g>
<g
   id="g18"
   transform="matrix(0.05273448,0,0,0.05273448,9.6271187,10.147864)">
</g>
<g
   id="g20"
   transform="matrix(0.05273448,0,0,0.05273448,9.6271187,10.147864)">
</g>
<g
   id="g22"
   transform="matrix(0.05273448,0,0,0.05273448,9.6271187,10.147864)">
</g>
<g
   id="g24"
   transform="matrix(0.05273448,0,0,0.05273448,9.6271187,10.147864)">
</g>
<g
   id="g26"
   transform="matrix(0.05273448,0,0,0.05273448,9.6271187,10.147864)">
</g>
<g
   id="g28"
   transform="matrix(0.05273448,0,0,0.05273448,9.6271187,10.147864)">
</g>
<g
   id="g30"
   transform="matrix(0.05273448,0,0,0.05273448,9.6271187,10.147864)">
</g>
<g
   id="g32"
   transform="matrix(0.05273448,0,0,0.05273448,9.6271187,10.147864)">
</g>
<g
   id="g34"
   transform="matrix(0.05273448,0,0,0.05273448,9.6271187,10.147864)">
</g>
<g
   id="g36"
   transform="matrix(0.05273448,0,0,0.05273448,9.6271187,10.147864)">
</g>
<g
   id="g38"
   transform="matrix(0.05273448,0,0,0.05273448,9.6271187,10.147864)">
</g>
<g
   id="g40"
   transform="matrix(0.05273448,0,0,0.05273448,9.6271187,10.147864)">
</g>
<polygon
   transform="matrix(0.05332031,0,0,0.05332031,10.310491,10.504927)"
   id="polygon8"
   points="217.664,323.256 174.36,280.504 145.808,311.952 221.008,386.176 352.416,224.12 320.704,196.168 "
   style="fill:#7f7f7f;fill-opacity:1" /></svg>
