<?xml version="1.0" encoding="UTF-8" standalone="no"?>
<svg
   xmlns:dc="http://purl.org/dc/elements/1.1/"
   xmlns:cc="http://creativecommons.org/ns#"
   xmlns:rdf="http://www.w3.org/1999/02/22-rdf-syntax-ns#"
   xmlns:svg="http://www.w3.org/2000/svg"
   xmlns="http://www.w3.org/2000/svg"
   xmlns:xlink="http://www.w3.org/1999/xlink"
   xmlns:sodipodi="http://sodipodi.sourceforge.net/DTD/sodipodi-0.dtd"
   xmlns:inkscape="http://www.inkscape.org/namespaces/inkscape"
   width="24"
   height="24"
   viewBox="0 0 24 24"
   version="1.1"
   id="svg72"
   sodipodi:docname="ballot-orange.svg"
   inkscape:version="0.92.2 (5c3e80d, 2017-08-06)">
  <metadata
     id="metadata76">
    <rdf:RDF>
      <cc:Work
         rdf:about="">
        <dc:format>image/svg+xml</dc:format>
        <dc:type
           rdf:resource="http://purl.org/dc/dcmitype/StillImage" />
        <dc:title></dc:title>
      </cc:Work>
    </rdf:RDF>
  </metadata>
  <sodipodi:namedview
     pagecolor="#ffffff"
     bordercolor="#666666"
     borderopacity="1"
     objecttolerance="10"
     gridtolerance="10"
     guidetolerance="10"
     inkscape:pageopacity="0"
     inkscape:pageshadow="2"
     inkscape:window-width="1920"
     inkscape:window-height="990"
     id="namedview74"
     showgrid="false"
     inkscape:zoom="31"
     inkscape:cx="6.5483871"
     inkscape:cy="12"
     inkscape:window-x="0"
     inkscape:window-y="28"
     inkscape:window-maximized="1"
     inkscape:current-layer="svg72" />
  <defs
     id="defs64">
    <path
       id="a"
       d="M0 0h24v24H0z" />
  </defs>
  <clipPath
     id="clipPath68">
    <use
       xlink:href="#a"
       overflow="visible"
       id="use66" />
  </clipPath>
  <path
     fill-rule="evenodd"
     clip-rule="evenodd"
     d="M13 9.5h5v-2h-5v2zm0 7h5v-2h-5v2zm6 4.5H5c-1.1 0-2-.9-2-2V5c0-1.1.9-2 2-2h14c1.1 0 2 .9 2 2v14c0 1.1-.9 2-2 2zM6 11h5V6H6v5zm1-4h3v3H7V7zM6 18h5v-5H6v5zm1-4h3v3H7v-3z"
     id="path70"
     style="fill:#ff9955" />
</svg>
