<?xml version="1.0" encoding="UTF-8" standalone="no"?>
<!-- Generator: Adobe Illustrator 19.1.0, SVG Export Plug-In . SVG Version: 6.00 Build 0)  -->

<svg
   xmlns:dc="http://purl.org/dc/elements/1.1/"
   xmlns:cc="http://creativecommons.org/ns#"
   xmlns:rdf="http://www.w3.org/1999/02/22-rdf-syntax-ns#"
   xmlns:svg="http://www.w3.org/2000/svg"
   xmlns="http://www.w3.org/2000/svg"
   xmlns:sodipodi="http://sodipodi.sourceforge.net/DTD/sodipodi-0.dtd"
   xmlns:inkscape="http://www.inkscape.org/namespaces/inkscape"
   version="1.1"
   id="Capa_1"
   x="0px"
   y="0px"
   viewBox="0 0 12 12"
   xml:space="preserve"
   sodipodi:docname="ballot-clear.svg"
   width="12"
   height="12"
   inkscape:version="0.92.4 (5da689c313, 2019-01-14)"><metadata
   id="metadata59"><rdf:RDF><cc:Work
       rdf:about=""><dc:format>image/svg+xml</dc:format><dc:type
         rdf:resource="http://purl.org/dc/dcmitype/StillImage" /><dc:title></dc:title></cc:Work></rdf:RDF></metadata><defs
   id="defs57" /><sodipodi:namedview
   pagecolor="#ffffff"
   bordercolor="#666666"
   borderopacity="1"
   objecttolerance="10"
   gridtolerance="10"
   guidetolerance="10"
   inkscape:pageopacity="0"
   inkscape:pageshadow="2"
   inkscape:window-width="1920"
   inkscape:window-height="1017"
   id="namedview55"
   showgrid="true"
   inkscape:zoom="45.254834"
   inkscape:cx="6.5600526"
   inkscape:cy="7.1301378"
   inkscape:window-x="-8"
   inkscape:window-y="-8"
   inkscape:window-maximized="1"
   inkscape:current-layer="g22"><inkscape:grid
     type="xygrid"
     id="grid866" /></sodipodi:namedview>
<g
   id="g22"
   transform="matrix(0.02474227,0,0,0.02474227,0,0.00494755)">
	
<g
   style="fill:#535353;fill-opacity:1"
   id="List"
   transform="matrix(1.6797888,0,0,1.6797821,0.40377958,20.210454)"><path
     style="fill:#535353;fill-opacity:1"
     id="path8"
     d="M 48.001,-11.789687 C 21.486,-11.789687 0,9.6963123 0,36.211312 c 0,26.515 21.486,48.000991 48.001,48.000991 26.515,0 48.001,-21.485991 48.001,-48.000991 0,-26.5149997 -21.486,-48.000999 -48.001,-48.000999 z m -0.12,72.061999 c -13.522,0 -24.361,-10.539 -24.361,-24.061 0,-13.522 10.839,-24.061 24.361,-24.061 13.522,0 24.06,10.539 24.06,24.061 0,13.522 -10.538,24.061 -24.06,24.061 z"
     inkscape:connector-curvature="0" /><path
     style="fill:#535353;fill-opacity:1"
     id="path10"
     d="m 48.001,180.69557 c -26.515,0 -48.001,21.486 -48.001,48.001 0,26.515 21.486,48.001 48.001,48.001 26.515,0 48.001,-21.486 48.001,-48.001 0,-26.515 -21.486,-48.001 -48.001,-48.001 z m -0.12,72.062 c -13.522,0 -24.361,-10.539 -24.361,-24.061 0,-13.522 10.839,-24.061 24.361,-24.061 13.522,0 24.061,10.539 24.061,24.061 -10e-4,13.522 -10.539,24.061 -24.061,24.061 z"
     inkscape:connector-curvature="0" /></g><g
   style="fill:#535353;fill-opacity:1"
   id="g15"
   transform="matrix(1.6797888,0,0,1.6797821,0.40377958,20.210454)" /><g
   style="fill:#535353;fill-opacity:1"
   id="g17"
   transform="matrix(1.6797888,0,0,1.6797821,0.40377958,20.210454)" /><g
   style="fill:#535353;fill-opacity:1"
   id="g19"
   transform="matrix(1.6797888,0,0,1.6797821,0.40377958,20.210454)" /><g
   style="fill:#535353;fill-opacity:1"
   id="g21"
   transform="matrix(1.6797888,0,0,1.6797821,0.40377958,20.210454)" /><g
   style="fill:#535353;fill-opacity:1"
   id="g23"
   transform="matrix(1.6797888,0,0,1.6797821,0.40377958,20.210454)" /><g
   style="fill:#535353;fill-opacity:1"
   id="g25"
   transform="matrix(1.6797888,0,0,1.6797821,0.40377958,20.210454)" /><path
   style="fill:#535353;fill-opacity:1;stroke:#535353;stroke-width:38.21196365;stroke-linecap:round;stroke-linejoin:miter;stroke-miterlimit:4;stroke-dasharray:none;stroke-opacity:1"
   d="m 235.68808,81.087136 h 231.59487 v 0"
   id="path4604"
   inkscape:connector-curvature="0" /><path
   style="fill:#535353;fill-opacity:1;stroke:#535353;stroke-width:38.21196365;stroke-linecap:round;stroke-linejoin:miter;stroke-miterlimit:4;stroke-dasharray:none;stroke-opacity:1"
   d="M 235.08183,401.26893 H 466.6767 v 0"
   id="path4604-8"
   inkscape:connector-curvature="0" /></g>
<g
   id="g24"
   transform="translate(0,-473)">
</g>
<g
   id="g26"
   transform="translate(0,-473)">
</g>
<g
   id="g28"
   transform="translate(0,-473)">
</g>
<g
   id="g30"
   transform="translate(0,-473)">
</g>
<g
   id="g32"
   transform="translate(0,-473)">
</g>
<g
   id="g34"
   transform="translate(0,-473)">
</g>
<g
   id="g36"
   transform="translate(0,-473)">
</g>
<g
   id="g38"
   transform="translate(0,-473)">
</g>
<g
   id="g40"
   transform="translate(0,-473)">
</g>
<g
   id="g42"
   transform="translate(0,-473)">
</g>
<g
   id="g44"
   transform="translate(0,-473)">
</g>
<g
   id="g46"
   transform="translate(0,-473)">
</g>
<g
   id="g48"
   transform="translate(0,-473)">
</g>
<g
   id="g50"
   transform="translate(0,-473)">
</g>
<g
   id="g52"
   transform="translate(0,-473)">
</g>
</svg>