<?xml version="1.0" encoding="UTF-8" standalone="no"?>
<svg
   xmlns:dc="http://purl.org/dc/elements/1.1/"
   xmlns:cc="http://creativecommons.org/ns#"
   xmlns:rdf="http://www.w3.org/1999/02/22-rdf-syntax-ns#"
   xmlns:svg="http://www.w3.org/2000/svg"
   xmlns="http://www.w3.org/2000/svg"
   xmlns:sodipodi="http://sodipodi.sourceforge.net/DTD/sodipodi-0.dtd"
   xmlns:inkscape="http://www.inkscape.org/namespaces/inkscape"
   width="24"
   height="24"
   viewBox="0 0 24 24"
   id="svg2"
   version="1.1"
   inkscape:version="1.0.1 (3bc2e813f5, 2020-09-07)"
   sodipodi:docname="coax_dc.svg">
  <defs
     id="defs4" />
  <sodipodi:namedview
     id="base"
     pagecolor="#ffffff"
     bordercolor="#666666"
     borderopacity="1.0"
     inkscape:pageopacity="0.0"
     inkscape:pageshadow="2"
     inkscape:zoom="27.680294"
     inkscape:cx="13.785232"
     inkscape:cy="8.9523801"
     inkscape:document-units="px"
     inkscape:current-layer="layer1"
     showgrid="true"
     units="px"
     inkscape:window-width="1920"
     inkscape:window-height="1027"
     inkscape:window-x="-8"
     inkscape:window-y="-8"
     inkscape:window-maximized="1"
     inkscape:document-rotation="0">
    <inkscape:grid
       type="xygrid"
       id="grid4148" />
  </sodipodi:namedview>
  <metadata
     id="metadata7">
    <rdf:RDF>
      <cc:Work
         rdf:about="">
        <dc:format>image/svg+xml</dc:format>
        <dc:type
           rdf:resource="http://purl.org/dc/dcmitype/StillImage" />
        <dc:title />
      </cc:Work>
    </rdf:RDF>
  </metadata>
  <g
     inkscape:label="Layer 1"
     inkscape:groupmode="layer"
     id="layer1"
     transform="translate(0,-1028.3622)">
    <path
       id="path5023"
       style="opacity:0.999;fill:#3892e3;fill-opacity:1;stroke:none;stroke-width:0.31493;stroke-linecap:round;stroke-miterlimit:4;stroke-dasharray:none;stroke-opacity:1"
       d="m 11.035512,1033.3622 c -0.06555,0.013 -0.130958,0.028 -0.196491,0.041 0.002,-4e-4 0.0034,4e-4 0.0055,0 0.07417,-0.015 0.116458,-0.025 0.191032,-0.041 z m -5.9583583,3.1952 c 4.359e-4,0 0.00105,0.011 0.00181,0.013 0.00539,5e-4 0.00861,-5e-4 0.014554,0 0.00488,0 0.00968,0 0.014554,0 0.00415,0 0.00892,-0.01 0.012736,-0.01 -0.00366,-10e-5 -0.00727,10e-5 -0.010916,0 -0.00521,10e-5 -0.00933,-10e-5 -0.014554,0 -0.00261,10e-5 -0.00468,-10e-5 -0.00728,0 -0.00393,10e-5 -0.00716,-10e-5 -0.010916,0 z M 1,1040.6519 a 11.17806,11.250326 0 0 0 10.863312,11.1019 11.17806,11.250326 0 0 0 11.48553,-10.8749 c -0.03757,10e-5 -0.07512,-10e-5 -0.112799,0 -0.114217,3e-4 -0.22782,0 -0.342037,0 -0.130577,0 -0.262446,0 -0.39298,-0.01 -0.03667,0 -0.07257,-0.012 -0.109159,-0.014 -0.02531,0 -0.04938,0 -0.0746,0 -0.119893,-0.013 -0.136107,-0.023 -0.249249,-0.054 -0.0239,-0.01 -0.0352,-0.021 -0.05458,-0.029 -0.0013,8e-4 -0.0088,0.01 -0.0055,0 -0.117599,0.077 -0.189538,0.076 -0.318385,0.056 0.01249,-0.011 0.02553,-0.011 -0.0273,0 -0.02737,0.01 -0.05245,0.017 -0.08005,0.023 -0.130903,0.024 -0.133041,0.018 -0.256528,0.018 H 21.19469 c -0.04316,0 -0.08601,0 -0.129174,0 -0.07897,-10e-5 -0.157542,0 -0.236515,0 -0.07601,-10e-5 -0.151416,0 -0.227417,0 -0.263322,3e-4 -0.528098,0 -0.791417,0 -0.06273,9e-4 -0.09722,0 -0.16374,0 -0.02323,6e-4 -0.04655,0.01 -0.06913,0 -0.05037,-0.012 -0.07875,-0.025 -0.114619,-0.037 0.01285,0 0.01204,0 0.0019,0.013 -0.02486,-0.011 -0.0063,0 -0.02,-0.01 -0.01476,0 -0.03031,0.01 -0.06368,0.01 -0.03623,0 -0.06889,-0.01 -0.103703,-0.01 -0.03518,0 -0.07043,0 -0.105522,0 -0.04694,0 -0.05882,-0.016 -0.08005,-0.026 -0.02272,0 -0.04637,-0.01 -0.06913,-0.016 -0.208253,0 -0.415958,0 -0.624034,0 -0.0053,3e-4 -0.161823,0.01 -0.192851,0 -0.04227,-0.01 -0.08255,-0.021 -0.123716,-0.033 -0.0031,-8e-4 -0.0105,0 -0.0073,-0.01 0.01056,0 0.02179,2e-4 0.03275,0 0.0067,-9e-4 -0.0133,0 -0.02,0 -0.08766,0 -0.17615,10e-5 -0.263805,0 -0.09418,-9e-4 -0.22579,5e-4 -0.331121,0 -0.38759,-4e-4 -0.774968,-0.01 -1.162562,0 -0.0011,10e-5 -0.0043,0 -0.0055,0 -0.0092,0.076 -0.022,0.1446 -0.0473,0.1849 v 0 c 0.0016,0.036 0.01336,0.059 0.0073,0.1063 -0.0071,0.056 -0.09851,0 -0.163741,-0.021 -0.09178,0.01 -0.197929,-0.011 -0.300192,-0.023 -0.116501,-0.011 -0.19561,-0.027 -0.280179,-0.041 -0.20115,-0.02 -0.402776,-0.035 -0.604022,-0.054 -0.397852,-0.01 -0.795579,-0.013 -1.193491,-0.018 -1.059081,-0.014 -2.117598,-0.01 -3.176578,0 -0.5774026,0 -1.1545606,-0.01 -1.7320174,0 h 0.00181 c -0.028248,0 -0.057263,0 -0.08551,0 -0.038422,3e-4 -0.096285,0.035 -0.1146187,0 -0.00183,0 -0.00191,-0.01 -0.00365,-0.01 -0.028944,0.013 -0.060306,0.029 -0.060039,0.013 7.524e-4,-0.045 0.00342,-0.092 0.00728,-0.139 -0.032698,0 -0.065383,0 -0.098244,0 -0.4248191,0 -0.850542,-10e-5 -1.2753612,0 -0.1014563,0 -0.2023766,7e-4 -0.3038308,0 -0.330383,-4e-4 -0.6611905,0 -0.9915434,0 -0.022906,-0.011 -0.061644,0 -0.08369,0 -0.1259903,0.01 -0.2526814,0.01 -0.3784238,-0.011 -0.1584598,-0.027 -0.075464,-0.012 -0.1964895,-0.033 -0.00178,10e-5 -0.00368,-2e-4 -0.00546,0 -0.2049527,0.017 -0.4063566,0 -0.6094806,-0.033 H 4.4331054 4.005559 c -0.06181,0 -0.2289984,0 -0.2310568,0 -0.00621,-0.01 -0.00707,-0.024 -0.010916,-0.034 -0.022889,-5e-4 -0.050941,9e-4 -0.072774,0 1.25e-5,0 1.616e-4,-5e-4 0.00181,0.034 H 3.1140798 2.6919916 c -0.037128,0 -0.073852,0 -0.1109802,0 -0.2311112,-10e-5 -0.4620597,0 -0.6931707,0 -0.069241,-10e-5 -0.138165,-7e-4 -0.2074054,0 -0.084729,4e-4 -0.1699991,8e-4 -0.2547084,0 -0.03293,0 -0.066999,0.01 -0.1000641,0.01 -0.078462,0 -0.1553422,-0.024 -0.2328763,-0.027 -0.042967,0 -0.06237,-0.023 -0.0927869,-0.034 z m 18.444526,0.194 c 0.0043,0 0.01534,0 0.0182,0 -0.008,0 -0.01577,0 -0.02365,0 0.0035,0 0.001,0 0.0055,0 z" />
    <path
       style="fill:#3892e3;fill-opacity:1;stroke:#3994e3;stroke-width:0.93096px;stroke-linecap:butt;stroke-linejoin:miter;stroke-opacity:1"
       d="M 1.1677356,1040.6427 H 23.354259"
       id="path5151" />
    <path
       style="opacity:0.999;fill:none;fill-opacity:1;stroke:#3994e3;stroke-width:0.514;stroke-linecap:round;stroke-miterlimit:4;stroke-dasharray:none;stroke-opacity:1"
       id="path5156"
       sodipodi:type="arc"
       sodipodi:cx="12.260998"
       sodipodi:cy="1040.5071"
       sodipodi:rx="11.093262"
       sodipodi:ry="11.250324"
       sodipodi:start="0.028432635"
       sodipodi:end="0.026409624"
       sodipodi:open="true"
       sodipodi:arc-type="arc"
       d="m 23.349776,1040.8269 a 11.093262,11.250324 0 0 1 -11.398538,10.9261 11.093262,11.250324 0 0 1 -10.7793316,-11.5544 11.093262,11.250324 0 0 1 11.3876346,-10.9378 11.093262,11.250324 0 0 1 10.79085,11.5434" />
  </g>
</svg>
