<?xml version="1.0" encoding="UTF-8" standalone="no"?>
<!-- Generator: Adobe Illustrator 18.1.1, SVG Export Plug-In . SVG Version: 6.00 Build 0)  -->

<svg
   xmlns:dc="http://purl.org/dc/elements/1.1/"
   xmlns:cc="http://creativecommons.org/ns#"
   xmlns:rdf="http://www.w3.org/1999/02/22-rdf-syntax-ns#"
   xmlns:svg="http://www.w3.org/2000/svg"
   xmlns="http://www.w3.org/2000/svg"
   xmlns:sodipodi="http://sodipodi.sourceforge.net/DTD/sodipodi-0.dtd"
   xmlns:inkscape="http://www.inkscape.org/namespaces/inkscape"
   version="1.1"
   id="Capa_1"
   x="0px"
   y="0px"
   viewBox="0 0 40 40"
   xml:space="preserve"
   inkscape:version="0.92.2 (5c3e80d, 2017-08-06)"
   sodipodi:docname="camera.svg"
   width="40"
   height="40"><metadata
     id="metadata4177"><rdf:RDF><cc:Work
         rdf:about=""><dc:format>image/svg+xml</dc:format><dc:type
           rdf:resource="http://purl.org/dc/dcmitype/StillImage" /><dc:title /></cc:Work></rdf:RDF></metadata><defs
     id="defs4175" /><sodipodi:namedview
     pagecolor="#ffffff"
     bordercolor="#666666"
     borderopacity="1"
     objecttolerance="10"
     gridtolerance="10"
     guidetolerance="10"
     inkscape:pageopacity="0"
     inkscape:pageshadow="2"
     inkscape:window-width="1920"
     inkscape:window-height="1017"
     id="namedview4173"
     showgrid="false"
     inkscape:zoom="6.69"
     inkscape:cx="3.6621819"
     inkscape:cy="14.125561"
     inkscape:window-x="-8"
     inkscape:window-y="32"
     inkscape:window-maximized="1"
     inkscape:current-layer="g4137" /><g
     id="g4137"
     transform="matrix(0.4,0,0,0.4,0,0.1644245)"><g
       id="g4139"><path
         style="fill:#66666e;fill-opacity:1"
         d="m 50,40 c -8.285,0 -15,6.718 -15,15 0,8.285 6.715,15 15,15 8.283,0 15,-6.715 15,-15 C 65,46.718 58.283,40 50,40 Z M 90,25 78,25 c -1.65,0 -3.428,-1.28 -3.949,-2.846 L 70.949,12.845 C 70.426,11.28 68.65,10 67,10 l -34,0 c -1.65,0 -3.428,1.28 -3.949,2.846 l -3.102,9.309 C 25.426,23.72 23.65,25 22,25 L 10,25 C 4.5,25 0,29.5 0,35 l 0,45 c 0,5.5 4.5,10 10,10 l 80,0 c 5.5,0 10,-4.5 10,-10 l 0,-45 C 100,29.5 95.5,25 90,25 Z M 50,80 C 36.193,80 25,68.807 25,55 25,41.194 36.193,30 50,30 63.805,30 75,41.194 75,55 75,68.807 63.805,80 50,80 Z M 86.5,41.993 c -1.932,0 -3.5,-1.566 -3.5,-3.5 0,-1.932 1.568,-3.5 3.5,-3.5 1.934,0 3.5,1.568 3.5,3.5 0,1.934 -1.567,3.5 -3.5,3.5 z"
         id="path4141"
         inkscape:connector-curvature="0" /></g></g><g
     id="g4143"
     transform="translate(0,-60)" /><g
     id="g4145"
     transform="translate(0,-60)" /><g
     id="g4147"
     transform="translate(0,-60)" /><g
     id="g4149"
     transform="translate(0,-60)" /><g
     id="g4151"
     transform="translate(0,-60)" /><g
     id="g4153"
     transform="translate(0,-60)" /><g
     id="g4155"
     transform="translate(0,-60)" /><g
     id="g4157"
     transform="translate(0,-60)" /><g
     id="g4159"
     transform="translate(0,-60)" /><g
     id="g4161"
     transform="translate(0,-60)" /><g
     id="g4163"
     transform="translate(0,-60)" /><g
     id="g4165"
     transform="translate(0,-60)" /><g
     id="g4167"
     transform="translate(0,-60)" /><g
     id="g4169"
     transform="translate(0,-60)" /><g
     id="g4171"
     transform="translate(0,-60)" /></svg>