<?xml version="1.0" encoding="UTF-8" standalone="no"?>
<!DOCTYPE svg PUBLIC "-//W3C//DTD SVG 1.1//EN" "http://www.w3.org/Graphics/SVG/1.1/DTD/svg11.dtd">
<!-- Generated by Microsoft Visio, SVG Export ContainmentModel.svg Page-1 -->
<svg xmlns="http://www.w3.org/2000/svg" xmlns:xlink="http://www.w3.org/1999/xlink" xmlns:ev="http://www.w3.org/2001/xml-events"
		xmlns:v="http://schemas.microsoft.com/visio/2003/SVGExtensions/" width="8.25648in" height="4.9246in"
		viewBox="0 0 594.467 354.571" xml:space="preserve" color-interpolation-filters="sRGB" class="st20">
	<v:documentProperties v:langID="2057" v:metric="true" v:viewMarkup="false"/>

	<style type="text/css">
	<![CDATA[
		.st1 {fill:#ffffff;stroke:#6fb969;stroke-linecap:round;stroke-linejoin:round;stroke-width:1.5}
		.st2 {fill:#ffffff;stroke:none;stroke-linecap:round;stroke-linejoin:round;stroke-width:0.24}
		.st3 {fill:none;stroke:none;stroke-linecap:round;stroke-linejoin:round;stroke-width:0.75}
		.st4 {fill:#000000;font-family:Arial;font-size:1.16666em;font-weight:bold}
		.st5 {marker-start:url(#mrkr13-13);stroke:#7f7f7f;stroke-dasharray:2,4;stroke-linecap:round;stroke-linejoin:round;stroke-width:2}
		.st6 {fill:#7f7f7f;fill-opacity:1;stroke:#7f7f7f;stroke-opacity:1;stroke-width:0.44247787610619}
		.st7 {fill:#7f7f7f;stroke:none;stroke-linecap:round;stroke-linejoin:round;stroke-width:0.24}
		.st8 {marker-start:url(#mrkr13-13);stroke:#7f7f7f;stroke-linecap:round;stroke-linejoin:round;stroke-width:2}
		.st9 {marker-start:url(#mrkr13-36);stroke:#6fb969;stroke-linecap:round;stroke-linejoin:round;stroke-width:3}
		.st10 {fill:#6fb969;fill-opacity:1;stroke:#6fb969;stroke-opacity:1;stroke-width:0.54347826086957}
		.st11 {fill:#6fb969;stroke:none;stroke-linecap:round;stroke-linejoin:round;stroke-width:0.24}
		.st12 {marker-end:url(#mrkr13-44);stroke:#6fb969;stroke-linecap:round;stroke-linejoin:round;stroke-width:3}
		.st13 {marker-start:url(#mrkr13-76);stroke:#0070c0;stroke-linecap:round;stroke-linejoin:round;stroke-width:0.75}
		.st14 {fill:#0070c0;fill-opacity:1;stroke:#0070c0;stroke-opacity:1;stroke-width:0.22935779816514}
		.st15 {marker-end:url(#mrkr13-87);stroke:#0070c0;stroke-linecap:round;stroke-linejoin:round;stroke-width:0.75}
		.st16 {marker-end:url(#mrkr13-98);stroke:#0070c0;stroke-linecap:round;stroke-linejoin:round;stroke-width:0.75}
		.st17 {fill:#000000;font-family:Arial;font-size:0.833336em}
		.st18 {font-size:1em}
		.st19 {marker-end:url(#mrkr5-151);stroke:#0070c0;stroke-linecap:round;stroke-linejoin:round;stroke-width:0.75}
		.st20 {fill:none;fill-rule:evenodd;font-size:12px;overflow:visible;stroke-linecap:square;stroke-miterlimit:3}
	]]>
	</style>

	<defs id="Markers">
		<g id="lend13">
			<path d="M 3 1 L 0 0 L 3 -1 L 3 1 " style="stroke:none"/>
		</g>
		<marker id="mrkr13-13" class="st6" v:arrowType="13" v:arrowSize="2" v:setback="6.6" refX="6.6" orient="auto"
				markerUnits="strokeWidth" overflow="visible">
			<use xlink:href="#lend13" transform="scale(2.26) "/>
		</marker>
		<marker id="mrkr13-36" class="st10" v:arrowType="13" v:arrowSize="2" v:setback="5.4" refX="5.4" orient="auto"
				markerUnits="strokeWidth" overflow="visible">
			<use xlink:href="#lend13" transform="scale(1.84) "/>
		</marker>
		<marker id="mrkr13-44" class="st10" v:arrowType="13" v:arrowSize="2" v:setback="5.52" refX="-5.52" orient="auto"
				markerUnits="strokeWidth" overflow="visible">
			<use xlink:href="#lend13" transform="scale(-1.84,-1.84) "/>
		</marker>
		<marker id="mrkr13-76" class="st14" v:arrowType="13" v:arrowSize="2" v:setback="12.6" refX="12.6" orient="auto"
				markerUnits="strokeWidth" overflow="visible">
			<use xlink:href="#lend13" transform="scale(4.36) "/>
		</marker>
		<marker id="mrkr13-87" class="st14" v:arrowType="13" v:arrowSize="2" v:setback="13.08" refX="-13.08" orient="auto"
				markerUnits="strokeWidth" overflow="visible">
			<use xlink:href="#lend13" transform="scale(-4.36,-4.36) "/>
		</marker>
		<marker id="mrkr13-98" class="st14" v:arrowType="13" v:arrowSize="2" v:setback="12.6" refX="-12.6" orient="auto"
				markerUnits="strokeWidth" overflow="visible">
			<use xlink:href="#lend13" transform="scale(-4.36,-4.36) "/>
		</marker>
		<g id="lend5">
			<path d="M 2 1 L 0 0 L 1.98117 -0.993387 C 1.67173 -0.364515 1.67301 0.372641 1.98465 1.00043 " style="stroke:none"/>
		</g>
		<marker id="mrkr5-151" class="st14" v:arrowType="5" v:arrowSize="2" v:setback="7.15" refX="-7.15" orient="auto"
				markerUnits="strokeWidth" overflow="visible">
			<use xlink:href="#lend5" transform="scale(-4.36,-4.36) "/>
		</marker>
	</defs>
	<g v:mID="0" v:index="1" v:groupContext="foregroundPage">
		<title>Page-1</title>
		<v:pageProperties v:drawingScale="0.0393701" v:pageScale="0.0393701" v:drawingUnits="24" v:shadowOffsetX="8.50394"
				v:shadowOffsetY="-8.50394"/>
		<v:layer v:name="Flowchart" v:index="0"/>
		<g id="shape98-1" v:mID="98" v:groupContext="shape" transform="translate(71.8081,-137.095)">
			<title>Rounded Rectangle</title>
			<v:userDefs>
				<v:ud v:nameU="CTypeTopLeftSnip" v:prompt="" v:val="VT0(0):5"/>
				<v:ud v:nameU="CTypeTopRightSnip" v:prompt="" v:val="VT0(0):5"/>
				<v:ud v:nameU="CTypeBotLeftSnip" v:prompt="" v:val="VT0(0):5"/>
				<v:ud v:nameU="CTypeBotRightSnip" v:prompt="" v:val="VT0(0):5"/>
				<v:ud v:nameU="CornerLockHoriz" v:prompt="" v:val="VT0(1):5"/>
				<v:ud v:nameU="CornerLockVert" v:prompt="" v:val="VT0(1):5"/>
				<v:ud v:nameU="CornerLockDiag" v:prompt="" v:val="VT0(0):5"/>
				<v:ud v:nameU="TopLeftOffset" v:prompt="" v:val="VT0(0.15748031496063):24"/>
				<v:ud v:nameU="TopRightOffset" v:prompt="" v:val="VT0(0.15748031496063):24"/>
				<v:ud v:nameU="BotLeftOffset" v:prompt="" v:val="VT0(0.15748031496063):24"/>
				<v:ud v:nameU="BotRightOffset" v:prompt="" v:val="VT0(0.15748031496063):24"/>
				<v:ud v:nameU="visVersion" v:prompt="" v:val="VT0(15):26"/>
				<v:ud v:nameU="TopLeftOffset" v:prompt="" v:val="VT0(2.2204460492503E-15):1"/>
				<v:ud v:nameU="TopRightOffset" v:prompt="" v:val="VT0(2.2204460492503E-15):1"/>
				<v:ud v:nameU="BotLeftOffset" v:prompt="" v:val="VT0(2.2204460492503E-15):1"/>
				<v:ud v:nameU="BotRightOffset" v:prompt="" v:val="VT0(2.2204460492503E-15):1"/>
			</v:userDefs>
			<path d="M0 354.57 L36.85 354.57 L36.85 321.47 L0 321.47 L0 354.57 Z" class="st1"/>
		</g>
		<g id="shape97-3" v:mID="97" v:groupContext="shape" transform="translate(198.405,-258.673)">
			<title>Rectangle.26</title>
			<v:userDefs>
				<v:ud v:nameU="visVersion" v:val="VT0(15):26"/>
			</v:userDefs>
			<rect x="0" y="346.667" width="13.2621" height="7.90367" class="st2"/>
		</g>
		<g id="shape167-5" v:mID="167" v:groupContext="shape" transform="translate(455.903,-330.277)">
			<title>Sheet.167</title>
			<desc>Cable</desc>
			<v:textBlock v:margins="rect(4,4,4,4)" v:tabSpace="42.5197"/>
			<v:textRect cx="24.8031" cy="344.571" width="49.61" height="20"/>
			<rect x="0" y="334.571" width="49.6063" height="20" class="st3"/>
			<text x="5.74" y="348.77" class="st4" v:langID="1033"><v:paragraph v:horizAlign="1"/><v:tabList/>Cable</text>		</g>
		<g id="shape183-8" v:mID="183" v:groupContext="shape" v:layerMember="0" transform="translate(250.391,425.557) rotate(180)">
			<title>Cause 1.72</title>
			<v:userDefs>
				<v:ud v:nameU="visVersion" v:val="VT0(15):26"/>
				<v:ud v:nameU="Scale" v:val="VT0(1):26"/>
				<v:ud v:nameU="AntiScale" v:val="VT0(1):26"/>
			</v:userDefs>
			<path d="M13.2 354.57 L13.56 354.57 L133.38 354.57" class="st5"/>
		</g>
		<g id="shape184-14" v:mID="184" v:groupContext="shape" transform="translate(108.658,-279.407)">
			<title>Circle</title>
			<v:userDefs>
				<v:ud v:nameU="visVersion" v:val="VT0(15):26"/>
			</v:userDefs>
			<path d="M0 350.39 A4.17737 4.17737 0 1 1 8.35 350.39 A4.17737 4.17737 0 1 1 0 350.39 Z" class="st7"/>
		</g>
		<g id="shape188-16" v:mID="188" v:groupContext="shape" v:layerMember="0" transform="translate(448.816,425.557) rotate(180)">
			<title>Cause 1.188</title>
			<v:userDefs>
				<v:ud v:nameU="visVersion" v:val="VT0(15):26"/>
				<v:ud v:nameU="Scale" v:val="VT0(1):26"/>
				<v:ud v:nameU="AntiScale" v:val="VT0(1):26"/>
			</v:userDefs>
			<path d="M13.2 354.57 L13.56 354.57 L133.38 354.57" class="st5"/>
		</g>
		<g id="shape189-21" v:mID="189" v:groupContext="shape" transform="translate(307.084,-279.407)">
			<title>Circle.189</title>
			<v:userDefs>
				<v:ud v:nameU="visVersion" v:val="VT0(15):26"/>
			</v:userDefs>
			<path d="M0 350.39 A4.17737 4.17737 0 1 1 8.35 350.39 A4.17737 4.17737 0 1 1 0 350.39 Z" class="st7"/>
		</g>
		<g id="group190-23" transform="translate(108.658,-336.1)" v:mID="190" v:groupContext="group">
			<title>Sheet.190</title>
			<g id="shape72-24" v:mID="72" v:groupContext="shape" v:layerMember="0"
					transform="translate(340.157,704.965) rotate(180)">
				<title>Cause 1.72</title>
				<v:userDefs>
					<v:ud v:nameU="visVersion" v:val="VT0(15):26"/>
					<v:ud v:nameU="Scale" v:val="VT0(1):26"/>
					<v:ud v:nameU="AntiScale" v:val="VT0(1):26"/>
				</v:userDefs>
				<path d="M13.2 354.57 L13.56 354.57 L331.8 354.57" class="st8"/>
			</g>
			<g id="shape180-29" v:mID="180" v:groupContext="shape">
				<title>Circle.180</title>
				<v:userDefs>
					<v:ud v:nameU="visVersion" v:val="VT0(15):26"/>
				</v:userDefs>
				<path d="M0 350.39 A4.17737 4.17737 0 1 1 8.35 350.39 A4.17737 4.17737 0 1 1 0 350.39 Z" class="st7"/>
			</g>
		</g>
		<g id="shape191-31" v:mID="191" v:groupContext="shape" v:layerMember="0" transform="translate(250.391,482.25) rotate(180)">
			<title>Cause 1.191</title>
			<v:userDefs>
				<v:ud v:nameU="visVersion" v:val="VT0(15):26"/>
				<v:ud v:nameU="Scale" v:val="VT0(1):26"/>
				<v:ud v:nameU="AntiScale" v:val="VT0(1):26"/>
			</v:userDefs>
			<path d="M16.2 354.57 L16.56 354.57 L133.38 354.57" class="st9"/>
		</g>
		<g id="shape192-37" v:mID="192" v:groupContext="shape" transform="translate(107.913,-222.714)">
			<title>Circle.192</title>
			<v:userDefs>
				<v:ud v:nameU="visVersion" v:val="VT0(15):26"/>
			</v:userDefs>
			<path d="M0 349.65 A4.92334 4.92334 0 1 1 9.85 349.65 A4.92334 4.92334 0 1 1 0 349.65 Z" class="st11"/>
		</g>
		<g id="shape193-39" v:mID="193" v:groupContext="shape" v:layerMember="0" transform="translate(440.312,482.25) rotate(180)">
			<title>Cause 1.193</title>
			<v:userDefs>
				<v:ud v:nameU="visVersion" v:val="VT0(15):26"/>
				<v:ud v:nameU="Scale" v:val="VT0(1):26"/>
				<v:ud v:nameU="AntiScale" v:val="VT0(1):26"/>
			</v:userDefs>
			<path d="M0 354.57 L116.82 354.57" class="st12"/>
		</g>
		<g id="shape194-45" v:mID="194" v:groupContext="shape" transform="translate(439.715,-222.714)">
			<title>Circle.194</title>
			<v:userDefs>
				<v:ud v:nameU="visVersion" v:val="VT0(15):26"/>
			</v:userDefs>
			<path d="M0 349.65 A4.92333 4.92333 0 1 1 9.85 349.65 A4.92333 4.92333 0 1 1 0 349.65 Z" class="st11"/>
		</g>
		<g id="shape196-47" v:mID="196" v:groupContext="shape" transform="translate(260.312,-137.095)">
			<title>Rounded Rectangle.196</title>
			<v:userDefs>
				<v:ud v:nameU="CTypeTopLeftSnip" v:prompt="" v:val="VT0(0):5"/>
				<v:ud v:nameU="CTypeTopRightSnip" v:prompt="" v:val="VT0(0):5"/>
				<v:ud v:nameU="CTypeBotLeftSnip" v:prompt="" v:val="VT0(0):5"/>
				<v:ud v:nameU="CTypeBotRightSnip" v:prompt="" v:val="VT0(0):5"/>
				<v:ud v:nameU="CornerLockHoriz" v:prompt="" v:val="VT0(1):5"/>
				<v:ud v:nameU="CornerLockVert" v:prompt="" v:val="VT0(1):5"/>
				<v:ud v:nameU="CornerLockDiag" v:prompt="" v:val="VT0(0):5"/>
				<v:ud v:nameU="TopLeftOffset" v:prompt="" v:val="VT0(0.15748031496063):24"/>
				<v:ud v:nameU="TopRightOffset" v:prompt="" v:val="VT0(0.15748031496063):24"/>
				<v:ud v:nameU="BotLeftOffset" v:prompt="" v:val="VT0(0.15748031496063):24"/>
				<v:ud v:nameU="BotRightOffset" v:prompt="" v:val="VT0(0.15748031496063):24"/>
				<v:ud v:nameU="visVersion" v:prompt="" v:val="VT0(15):26"/>
				<v:ud v:nameU="TopLeftOffset" v:prompt="" v:val="VT0(0):1"/>
				<v:ud v:nameU="TopRightOffset" v:prompt="" v:val="VT0(0):1"/>
				<v:ud v:nameU="BotLeftOffset" v:prompt="" v:val="VT0(0):1"/>
				<v:ud v:nameU="BotRightOffset" v:prompt="" v:val="VT0(0):1"/>
			</v:userDefs>
			<path d="M0 354.57 L36.85 354.57 L36.85 321.47 L0 321.47 L0 354.57 Z" class="st1"/>
		</g>
		<g id="shape197-49" v:mID="197" v:groupContext="shape" transform="translate(448.816,-137.095)">
			<title>Rounded Rectangle.197</title>
			<v:userDefs>
				<v:ud v:nameU="CTypeTopLeftSnip" v:prompt="" v:val="VT0(0):5"/>
				<v:ud v:nameU="CTypeTopRightSnip" v:prompt="" v:val="VT0(0):5"/>
				<v:ud v:nameU="CTypeBotLeftSnip" v:prompt="" v:val="VT0(0):5"/>
				<v:ud v:nameU="CTypeBotRightSnip" v:prompt="" v:val="VT0(0):5"/>
				<v:ud v:nameU="CornerLockHoriz" v:prompt="" v:val="VT0(1):5"/>
				<v:ud v:nameU="CornerLockVert" v:prompt="" v:val="VT0(1):5"/>
				<v:ud v:nameU="CornerLockDiag" v:prompt="" v:val="VT0(0):5"/>
				<v:ud v:nameU="TopLeftOffset" v:prompt="" v:val="VT0(0.15748031496063):24"/>
				<v:ud v:nameU="TopRightOffset" v:prompt="" v:val="VT0(0.15748031496063):24"/>
				<v:ud v:nameU="BotLeftOffset" v:prompt="" v:val="VT0(0.15748031496063):24"/>
				<v:ud v:nameU="BotRightOffset" v:prompt="" v:val="VT0(0.15748031496063):24"/>
				<v:ud v:nameU="visVersion" v:prompt="" v:val="VT0(15):26"/>
				<v:ud v:nameU="TopLeftOffset" v:prompt="" v:val="VT0(0):1"/>
				<v:ud v:nameU="TopRightOffset" v:prompt="" v:val="VT0(0):1"/>
				<v:ud v:nameU="BotLeftOffset" v:prompt="" v:val="VT0(0):1"/>
				<v:ud v:nameU="BotRightOffset" v:prompt="" v:val="VT0(0):1"/>
			</v:userDefs>
			<path d="M0 354.57 L36.85 354.57 L36.85 321.47 L0 321.47 L0 354.57 Z" class="st1"/>
		</g>
		<g id="shape198-51" v:mID="198" v:groupContext="shape" transform="translate(458.066,-70.9861)">
			<title>Circle.198</title>
			<v:userDefs>
				<v:ud v:nameU="visVersion" v:val="VT0(15):26"/>
			</v:userDefs>
			<path d="M0 345.02 A9.54828 9.54828 0 1 1 19.1 345.02 A9.54828 9.54828 0 1 1 0 345.02 Z" class="st11"/>
		</g>
		<g id="shape199-53" v:mID="199" v:groupContext="shape" transform="translate(80.312,-70.9861)">
			<title>Circle.199</title>
			<v:userDefs>
				<v:ud v:nameU="visVersion" v:val="VT0(15):26"/>
			</v:userDefs>
			<path d="M0 345.02 A9.54828 9.54828 0 1 1 19.1 345.02 A9.54828 9.54828 0 1 1 0 345.02 Z" class="st11"/>
		</g>
		<g id="shape200-55" v:mID="200" v:groupContext="shape" transform="translate(116.118,-0.12)">
			<title>Circle.200</title>
			<v:userDefs>
				<v:ud v:nameU="visVersion" v:val="VT0(15):26"/>
			</v:userDefs>
			<path d="M0 345.02 A9.54828 9.54828 0 1 1 19.1 345.02 A9.54828 9.54828 0 1 1 0 345.02 Z" class="st11"/>
		</g>
		<g id="shape201-57" v:mID="201" v:groupContext="shape" transform="translate(45.2519,-0.12)">
			<title>Circle.201</title>
			<v:userDefs>
				<v:ud v:nameU="visVersion" v:val="VT0(15):26"/>
			</v:userDefs>
			<path d="M0 345.02 A9.54828 9.54828 0 1 1 19.1 345.02 A9.54828 9.54828 0 1 1 0 345.02 Z" class="st11"/>
		</g>
		<g id="shape202-59" v:mID="202" v:groupContext="shape" transform="translate(473.619,-273.585)">
			<title>Sheet.202</title>
			<desc>Cable Segment</desc>
			<v:textBlock v:margins="rect(4,4,4,4)" v:tabSpace="42.5197"/>
			<v:textRect cx="60.2362" cy="344.571" width="120.48" height="20"/>
			<rect x="0" y="334.571" width="120.472" height="20" class="st3"/>
			<text x="9.67" y="348.77" class="st4" v:langID="1033"><v:paragraph v:horizAlign="1"/><v:tabList/>Cable Segment</text>		</g>
		<g id="shape203-62" v:mID="203" v:groupContext="shape" transform="translate(493.107,-216.892)">
			<title>Sheet.203</title>
			<desc>Route</desc>
			<v:textBlock v:margins="rect(4,4,4,4)" v:tabSpace="42.5197"/>
			<v:textRect cx="26.5748" cy="344.571" width="53.15" height="20"/>
			<rect x="0" y="334.571" width="53.1496" height="20" class="st3"/>
			<text x="6.74" y="348.77" class="st4" v:langID="1033"><v:paragraph v:horizAlign="1"/><v:tabList/>Route</text>		</g>
		<g id="shape204-65" v:mID="204" v:groupContext="shape" transform="translate(493.107,-146.026)">
			<title>Sheet.204</title>
			<desc>Structure</desc>
			<v:textBlock v:margins="rect(4,4,4,4)" v:tabSpace="42.5197"/>
			<v:textRect cx="40.748" cy="344.571" width="81.5" height="20"/>
			<rect x="0" y="334.571" width="81.496" height="20" class="st3"/>
			<text x="9.63" y="348.77" class="st4" v:langID="1033"><v:paragraph v:horizAlign="1"/><v:tabList/>Structure</text>		</g>
		<g id="shape205-68" v:mID="205" v:groupContext="shape" transform="translate(485.312,-70.9861)">
			<title>Sheet.205</title>
			<desc>Equipment</desc>
			<v:textBlock v:margins="rect(4,4,4,4)" v:tabSpace="42.5197"/>
			<v:textRect cx="45.5315" cy="344.571" width="91.07" height="20"/>
			<rect x="0" y="334.571" width="91.063" height="20" class="st3"/>
			<text x="9.37" y="348.77" class="st4" v:langID="1033"><v:paragraph v:horizAlign="1"/><v:tabList/>Equipment</text>		</g>
		<g id="shape206-71" v:mID="206" v:groupContext="shape" transform="translate(179.525,-297.758)">
			<title>Sheet.206</title>
			<path d="M0 333.65 L0 334.01 L0 334.73 L0 354.57" class="st13"/>
		</g>
		<g id="shape207-77" v:mID="207" v:groupContext="shape" transform="translate(377.95,-295.733)">
			<title>Sheet.207</title>
			<path d="M0 333.65 L0 334.01 L0 334.73 L0 354.57" class="st13"/>
		</g>
		<g id="shape208-82" v:mID="208" v:groupContext="shape" transform="translate(179.525,-241.065)">
			<title>Sheet.208</title>
			<path d="M0 324.2 L0 334.73 L0 344.76" class="st15"/>
		</g>
		<g id="shape209-88" v:mID="209" v:groupContext="shape" transform="translate(377.95,-239.04)">
			<title>Sheet.209</title>
			<path d="M0 324.2 L0 334.73 L0 344.76" class="st15"/>
		</g>
		<g id="shape210-93" v:mID="210" v:groupContext="shape" transform="translate(431.846,151.678) rotate(102.904)">
			<title>Sheet.210</title>
			<path d="M0 346.1 A95.2513 21.018 -12.34 0 0 88.31 348.1 L88.66 348.03" class="st16"/>
		</g>
		<g id="shape212-99" v:mID="212" v:groupContext="shape" transform="translate(192.568,-172.29) rotate(15)">
			<title>Sheet.212</title>
			<path d="M0 324.2 L0 334.73 L0 344.76" class="st15"/>
		</g>
		<g id="shape213-104" v:mID="213" v:groupContext="shape" transform="translate(179.525,-306.104)">
			<title>Sheet.213</title>
			<desc>Cable</desc>
			<v:textBlock v:margins="rect(4,4,4,4)" v:tabSpace="42.5197"/>
			<v:textRect cx="18.4252" cy="344.571" width="36.86" height="20"/>
			<rect x="0" y="334.571" width="36.8504" height="20" class="st3"/>
			<text x="5.36" y="347.57" class="st17" v:langID="1033"><v:paragraph v:horizAlign="1"/><v:tabList/>Cable</text>		</g>
		<g id="shape214-107" v:mID="214" v:groupContext="shape" transform="translate(377.95,-306.104)">
			<title>Sheet.214</title>
			<desc>Cable</desc>
			<v:textBlock v:margins="rect(4,4,4,4)" v:tabSpace="42.5197"/>
			<v:textRect cx="18.4252" cy="344.571" width="36.86" height="20"/>
			<rect x="0" y="334.571" width="36.8504" height="20" class="st3"/>
			<text x="5.36" y="347.57" class="st17" v:langID="1033"><v:paragraph v:horizAlign="1"/><v:tabList/>Cable</text>		</g>
		<g id="shape215-110" v:mID="215" v:groupContext="shape" transform="translate(179.525,-235.238)">
			<title>Sheet.215</title>
			<desc>Housing</desc>
			<v:textBlock v:margins="rect(4,4,4,4)" v:tabSpace="42.5197"/>
			<v:textRect cx="25.7953" cy="344.571" width="51.6" height="20"/>
			<rect x="0" y="334.571" width="51.5906" height="20" class="st3"/>
			<text x="7.45" y="347.57" class="st17" v:langID="1033"><v:paragraph v:horizAlign="1"/><v:tabList/>Housing</text>		</g>
		<g id="shape216-113" v:mID="216" v:groupContext="shape" transform="translate(377.95,-235.238)">
			<title>Sheet.216</title>
			<desc>Housing</desc>
			<v:textBlock v:margins="rect(4,4,4,4)" v:tabSpace="42.5197"/>
			<v:textRect cx="25.7953" cy="344.571" width="51.6" height="20"/>
			<rect x="0" y="334.571" width="51.5906" height="20" class="st3"/>
			<text x="7.45" y="347.57" class="st17" v:langID="1033"><v:paragraph v:horizAlign="1"/><v:tabList/>Housing</text>		</g>
		<g id="shape217-116" v:mID="217" v:groupContext="shape" transform="translate(11.9971,-192.718)">
			<title>Sheet.217</title>
			<desc>In Structure</desc>
			<v:textBlock v:margins="rect(4,4,4,4)" v:tabSpace="42.5197"/>
			<v:textRect cx="25.7953" cy="344.571" width="51.6" height="20"/>
			<rect x="0" y="334.571" width="51.5906" height="20" class="st3"/>
			<text x="21.63" y="341.57" class="st17" v:langID="1033"><v:paragraph v:horizAlign="1"/><v:tabList/>In <tspan x="5.51"
						dy="1.2em" class="st18">Structure</tspan></text>		</g>
		<g id="shape218-120" v:mID="218" v:groupContext="shape" transform="translate(125.628,152.049) rotate(77.0961) scale(1,-1)">
			<title>Sheet.218</title>
			<path d="M0 346.1 A95.2513 21.018 -12.34 0 0 88.31 348.1 L88.66 348.03" class="st16"/>
		</g>
		<g id="shape219-125" v:mID="219" v:groupContext="shape" transform="translate(70.5291,-135.806) rotate(-30)">
			<title>Sheet.219</title>
			<path d="M0 319.09 L0 331.39 L0 344.76" class="st15"/>
		</g>
		<g id="shape220-130" v:mID="220" v:groupContext="shape" transform="translate(88.411,-97.3079)">
			<title>Sheet.220</title>
			<path d="M0 333.65 L0 334.01 L0 334.73 L0 354.57" class="st13"/>
		</g>
		<g id="shape221-135" v:mID="221" v:groupContext="shape" transform="translate(466.026,-99.3326)">
			<title>Sheet.221</title>
			<path d="M0 333.65 L0 334.01 L0 334.73 L0 354.57" class="st13"/>
		</g>
		<g id="shape222-140" v:mID="222" v:groupContext="shape" transform="translate(88.411,-99.3326)">
			<title>Sheet.222</title>
			<desc>Housing</desc>
			<v:textBlock v:margins="rect(4,4,4,4)" v:tabSpace="42.5197"/>
			<v:textRect cx="25.7953" cy="344.571" width="51.6" height="20"/>
			<rect x="0" y="334.571" width="51.5906" height="20" class="st3"/>
			<text x="7.45" y="347.57" class="st17" v:langID="1033"><v:paragraph v:horizAlign="1"/><v:tabList/>Housing</text>		</g>
		<g id="shape223-143" v:mID="223" v:groupContext="shape" transform="translate(465.54,-99.3326)">
			<title>Sheet.223</title>
			<desc>Housing</desc>
			<v:textBlock v:margins="rect(4,4,4,4)" v:tabSpace="42.5197"/>
			<v:textRect cx="25.7953" cy="344.571" width="51.6" height="20"/>
			<rect x="0" y="334.571" width="51.5906" height="20" class="st3"/>
			<text x="7.45" y="347.57" class="st17" v:langID="1033"><v:paragraph v:horizAlign="1"/><v:tabList/>Housing</text>		</g>
		<g id="shape224-146" v:mID="224" v:groupContext="shape" transform="translate(-237.622,124.303) rotate(-55.4077)">
			<title>Sheet.224</title>
			<path d="M-0 354.57 A38.3371 26.7816 142.07 0 1 42.03 350.33 L42.28 350.6" class="st19"/>
		</g>
		<g id="shape226-152" v:mID="226" v:groupContext="shape" transform="translate(417.554,124.236) rotate(55.4077) scale(-1,1)">
			<title>Sheet.226</title>
			<path d="M-0 354.57 A38.3371 26.7816 142.07 0 1 42.03 350.33 L42.28 350.6" class="st19"/>
		</g>
		<g id="shape227-157" v:mID="227" v:groupContext="shape" transform="translate(127.934,-32.6397)">
			<title>Sheet.227</title>
			<desc>Housing</desc>
			<v:textBlock v:margins="rect(4,4,4,4)" v:tabSpace="42.5197"/>
			<v:textRect cx="25.7953" cy="344.571" width="51.6" height="20"/>
			<rect x="0" y="334.571" width="51.5906" height="20" class="st3"/>
			<text x="7.45" y="347.57" class="st17" v:langID="1033"><v:paragraph v:horizAlign="1"/><v:tabList/>Housing</text>		</g>
		<g id="shape228-160" v:mID="228" v:groupContext="shape" transform="translate(0.375,-32.6397)">
			<title>Sheet.228</title>
			<desc>Housing</desc>
			<v:textBlock v:margins="rect(4,4,4,4)" v:tabSpace="42.5197"/>
			<v:textRect cx="25.7953" cy="344.571" width="51.6" height="20"/>
			<rect x="0" y="334.571" width="51.5906" height="20" class="st3"/>
			<text x="7.45" y="347.57" class="st17" v:langID="1033"><v:paragraph v:horizAlign="1"/><v:tabList/>Housing</text>		</g>
		<g id="shape245-163" v:mID="245" v:groupContext="shape" transform="translate(256.06,-292.089)">
			<title>Sheet.245</title>
			<path d="M-0 354.57 A31.471 25.8888 47.27 0 1 31.48 349.19 L31.78 349.39" class="st16"/>
		</g>
		<g id="shape246-168" v:mID="246" v:groupContext="shape" transform="translate(256.06,436.896) scale(1,-1)">
			<title>Sheet.246</title>
			<path d="M7.35 348.64 L7.63 348.41 A31.471 25.8888 47.27 0 1 39.69 354.57" class="st13"/>
		</g>
		<g id="shape247-173" v:mID="247" v:groupContext="shape" transform="translate(256.06,-297.6)">
			<title>Sheet.247</title>
			<desc>next</desc>
			<v:textBlock v:margins="rect(4,4,4,4)" v:tabSpace="42.5197"/>
			<v:textRect cx="18.4252" cy="344.571" width="36.86" height="20"/>
			<rect x="0" y="334.571" width="36.8504" height="20" class="st3"/>
			<text x="8.97" y="347.57" class="st17" v:langID="1033"><v:paragraph v:horizAlign="1"/><v:tabList/>next</text>		</g>
		<g id="shape248-176" v:mID="248" v:groupContext="shape" transform="translate(247.556,-243.9)">
			<title>Sheet.248</title>
			<desc>previous</desc>
			<v:textBlock v:margins="rect(4,4,4,4)" v:tabSpace="42.5197"/>
			<v:textRect cx="29.7638" cy="344.571" width="59.53" height="20"/>
			<rect x="0" y="334.571" width="59.5276" height="20" class="st3"/>
			<text x="10.86" y="347.57" class="st17" v:langID="1033"><v:paragraph v:horizAlign="1"/><v:tabList/>previous</text>		</g>
		<g id="shape249-179" v:mID="249" v:groupContext="shape" transform="translate(200.159,-176.151) rotate(-10)">
			<title>Sheet.249</title>
			<path d="M0 263.86 L0 295.31 L0 344.76" class="st15"/>
		</g>
		<g id="shape250-184" v:mID="250" v:groupContext="shape" transform="translate(376.176,-169.456) rotate(15)">
			<title>Sheet.250</title>
			<path d="M0 263.86 L0 295.31 L0 344.76" class="st15"/>
		</g>
		<g id="shape251-189" v:mID="251" v:groupContext="shape" transform="translate(364.84,-169.456) rotate(-15)">
			<title>Sheet.251</title>
			<path d="M0 319.09 L0 331.39 L0 344.76" class="st15"/>
		</g>
		<g id="shape252-194" v:mID="252" v:groupContext="shape" transform="translate(478.7,-135.677) rotate(30)">
			<title>Sheet.252</title>
			<path d="M0 319.09 L0 331.39 L0 344.76" class="st15"/>
		</g>
		<g id="shape253-199" v:mID="253" v:groupContext="shape" transform="translate(179.525,-259.411)">
			<title>Sheet.253</title>
			<desc>Segment</desc>
			<v:textBlock v:margins="rect(4,4,4,4)" v:tabSpace="42.5197"/>
			<v:textRect cx="25.7953" cy="344.571" width="51.6" height="20"/>
			<rect x="0" y="334.571" width="51.5906" height="20" class="st3"/>
			<text x="5.78" y="347.57" class="st17" v:langID="1033"><v:paragraph v:horizAlign="1"/><v:tabList/>Segment</text>		</g>
		<g id="shape254-202" v:mID="254" v:groupContext="shape" transform="translate(377.95,-259.411)">
			<title>Sheet.254</title>
			<desc>Segment</desc>
			<v:textBlock v:margins="rect(4,4,4,4)" v:tabSpace="42.5197"/>
			<v:textRect cx="25.7953" cy="344.571" width="51.6" height="20"/>
			<rect x="0" y="334.571" width="51.5906" height="20" class="st3"/>
			<text x="5.78" y="347.57" class="st17" v:langID="1033"><v:paragraph v:horizAlign="1"/><v:tabList/>Segment</text>		</g>
	</g>
</svg>
