<svg width="133" height="133" viewBox="0 0 133 133" fill="none" xmlns="http://www.w3.org/2000/svg">
<path d="M1.0024 66.5581C0.928698 57.9756 2.55549 49.4634 5.78888 41.5128C9.02228 33.5623 13.7982 26.3308 19.8412 20.2358C25.8841 14.1408 33.0742 9.30291 40.9967 6.00136C48.9192 2.69982 57.4171 0.999999 66 0.999999C74.5829 0.999999 83.0808 2.69982 91.0033 6.00136C98.9258 9.30291 106.116 14.1408 112.159 20.2358C118.202 26.3308 122.978 33.5623 126.211 41.5128C129.445 49.4634 131.071 57.9756 130.998 66.5581C130.85 83.6999 123.938 100.09 111.764 112.159C99.5908 124.228 83.1424 131 66 131C48.8576 131 32.4092 124.228 20.2358 112.159C8.06238 100.09 1.14959 83.6999 1.0024 66.5581Z" stroke="#01BF42" stroke-width="2" stroke-miterlimit="3" stroke-linecap="round" stroke-linejoin="round"/>
<mask id="mask0_1_88" style="mask-type:alpha" maskUnits="userSpaceOnUse" x="8" y="8" width="116" height="116">
<path fill-rule="evenodd" clip-rule="evenodd" d="M8.00214 66.498C7.93638 58.8397 9.38798 51.2442 12.2732 44.1499C15.1583 37.0556 19.42 30.6029 24.8121 25.1643C30.2042 19.7256 36.6201 15.4087 43.6894 12.4628C50.7587 9.51676 58.3414 8 66 8C73.6586 8 81.2413 9.51676 88.3106 12.4628C95.3799 15.4087 101.796 19.7256 107.188 25.1643C112.58 30.6029 116.842 37.0556 119.727 44.1499C122.612 51.2442 124.064 58.8397 123.998 66.498C123.867 81.7937 117.698 96.4183 106.836 107.188C95.9733 117.957 81.2963 124 66 124C50.7037 124 36.0267 117.957 25.1643 107.188C14.3018 96.4183 8.13348 81.7937 8.00214 66.498Z" fill="#D9D9D9"/>
</mask>
<g mask="url(#mask0_1_88)">
<path d="M39.2914 67.8441L76.7263 46.231L112.226 107.719L74.7914 129.332L39.2914 67.8441Z" fill="#BFBFBF"/>
<path d="M42.7591 65.842L78.2591 127.33" stroke="#D9D9D9"/>
<path d="M47.9552 62.842L83.4552 124.33" stroke="#D9D9D9"/>
<path d="M53.1514 59.842L88.6514 121.33" stroke="#D9D9D9"/>
<path d="M58.3475 56.842L93.8475 118.33" stroke="#D9D9D9"/>
<path d="M63.5437 53.842L99.0437 115.33" stroke="#D9D9D9"/>
<path d="M68.7398 50.842L104.24 112.33" stroke="#D9D9D9"/>
<path d="M73.936 47.842L109.436 109.33" stroke="#D9D9D9"/>
<path d="M41.7079 36.5225L48.7269 32.47C48.7269 32.47 73.6094 40.8325 76.697 46.1803C79.7846 51.5282 42.3497 73.1412 39.2621 67.7934C36.1745 62.4455 41.7079 36.5225 41.7079 36.5225Z" fill="#D9D9D9"/>
<path d="M39.6223 28.8757C39.0881 26.9174 41.4738 25.5009 42.9375 26.9073L48.727 32.47L41.7079 36.5225L39.6223 28.8757Z" fill="#7F7F7F"/>
</g>
</svg>
