<svg width="133" height="133" viewBox="0 0 133 133" fill="none" xmlns="http://www.w3.org/2000/svg">
<path d="M1.0024 66.5581C0.928698 57.9756 2.55549 49.4634 5.78888 41.5128C9.02228 33.5623 13.7982 26.3308 19.8412 20.2358C25.8841 14.1408 33.0742 9.30291 40.9967 6.00136C48.9192 2.69982 57.4171 0.999999 66 0.999999C74.5829 0.999999 83.0808 2.69982 91.0033 6.00136C98.9258 9.30291 106.116 14.1408 112.159 20.2358C118.202 26.3308 122.978 33.5623 126.211 41.5128C129.445 49.4634 131.071 57.9756 130.998 66.5581C130.85 83.6999 123.938 100.09 111.764 112.159C99.5908 124.228 83.1424 131 66 131C48.8576 131 32.4092 124.228 20.2358 112.159C8.06238 100.09 1.14959 83.6999 1.0024 66.5581Z" stroke="#01BF42" stroke-width="2" stroke-miterlimit="3" stroke-linecap="round" stroke-linejoin="round"/>
<mask id="mask0_1_2" style="mask-type:alpha" maskUnits="userSpaceOnUse" x="8" y="8" width="116" height="116">
<path fill-rule="evenodd" clip-rule="evenodd" d="M8.00214 66.498C7.93638 58.8397 9.38798 51.2442 12.2732 44.1499C15.1583 37.0556 19.42 30.6029 24.8121 25.1643C30.2042 19.7256 36.6201 15.4087 43.6894 12.4628C50.7587 9.51676 58.3414 8 66 8C73.6586 8 81.2413 9.51676 88.3106 12.4628C95.3799 15.4087 101.796 19.7256 107.188 25.1643C112.58 30.6029 116.842 37.0556 119.727 44.1499C122.612 51.2442 124.064 58.8397 123.998 66.498C123.867 81.7937 117.698 96.4183 106.836 107.188C95.9733 117.957 81.2963 124 66 124C50.7037 124 36.0267 117.957 25.1643 107.188C14.3018 96.4183 8.13348 81.7937 8.00214 66.498Z" fill="#D9D9D9"/>
</mask>
<g mask="url(#mask0_1_2)">
<path d="M111.528 85.9495L111.491 85.93C111.154 85.7508 110.658 85.4863 110.021 85.1453C108.745 84.4633 106.903 83.4751 104.637 82.2506C100.104 79.8014 93.8734 76.4071 87.085 72.6262C73.5005 65.0601 57.7049 55.9597 48.7882 49.7866C31.4004 37.7489 24.2606 28.0167 21.4481 21.3525C20.0427 18.0226 19.7153 15.4534 19.7309 13.7347C19.7387 12.8745 19.8325 12.2246 19.9216 11.7961C19.9455 11.6816 19.969 11.5828 19.9905 11.5H32.7297C32.8096 11.6493 32.9225 11.8584 33.0678 12.1219C33.3837 12.6948 33.8524 13.5254 34.465 14.559C35.6902 16.6261 37.4919 19.5067 39.8006 22.7647C44.4143 29.2757 51.0685 37.3168 59.2079 43.3781C67.9717 49.9043 82.5393 57.487 94.8846 63.4272C101.064 66.4002 106.697 68.9669 110.785 70.7902C112.829 71.702 114.487 72.428 115.635 72.9261C116.207 73.1748 116.653 73.3667 116.956 73.4967L111.528 85.9495Z" fill="#D8D8D8" stroke="#BFBFBF"/>
<ellipse cx="114.908" cy="80.0467" rx="3.07199" ry="7.35782" transform="rotate(22.9739 114.908 80.0467)" fill="#BFBFBF"/>
<ellipse cx="114.908" cy="80.0468" rx="1.94311" ry="4.654" transform="rotate(22.9739 114.908 80.0468)" fill="#7F7F7F"/>
<path d="M99.8495 93.8443C99.8462 93.8424 99.8429 93.8405 99.8396 93.8386C99.5189 93.6539 99.045 93.3799 98.4328 93.0235C97.2085 92.3107 95.431 91.2682 93.2196 89.9499C88.7966 87.3132 82.6385 83.5735 75.6986 79.162C61.8133 70.3357 44.8182 58.8327 32.3252 48.0992C20.1675 37.6539 13.937 28.3389 10.7457 21.6584C9.14963 18.3174 8.31238 15.6325 7.8744 13.7909C7.65539 12.8699 7.53614 12.1596 7.4718 11.6832C7.46295 11.6177 7.45514 11.5566 7.44825 11.5H20.276C20.3111 11.6161 20.3553 11.7583 20.4094 11.9252C20.5751 12.4365 20.8341 13.18 21.2092 14.1176C21.9593 15.9927 23.1741 18.6444 25.037 21.7678C28.7632 28.0154 35.0819 36.1485 45.458 43.7247C55.8063 51.2806 71.3085 59.8913 84.2039 66.6051C90.6556 69.9641 96.4618 72.8519 100.655 74.8999C102.752 75.924 104.446 76.7382 105.615 77.2965C106.2 77.5756 106.654 77.7908 106.962 77.9362C106.97 77.9402 106.979 77.9441 106.987 77.9479L99.8495 93.8443Z" fill="#D8D8D8" stroke="#BFBFBF"/>
<ellipse cx="103.808" cy="86.1015" rx="5.3112" ry="9.2619" transform="rotate(22.9739 103.808 86.1015)" fill="#BFBFBF"/>
<ellipse cx="103.808" cy="86.1015" rx="4.01507" ry="7.00166" transform="rotate(22.9739 103.808 86.1015)" fill="#7F7F7F"/>
<path d="M6.52542 11.5C6.56108 11.6172 6.60578 11.7615 6.65981 11.9313C6.82269 12.4432 7.07047 13.1872 7.41151 14.121C8.09353 15.9884 9.14899 18.6161 10.6451 21.6644C13.6358 27.7582 18.3949 35.549 25.4647 42.307C38.0703 54.3564 54.1132 63.4951 67.5841 70.0034C74.3225 73.2589 80.4246 75.8596 85.1385 77.8382C85.6956 78.072 86.2329 78.297 86.7494 78.5133C88.4204 79.2129 89.8733 79.8213 91.0712 80.3421C92.3595 80.9022 93.325 81.3496 93.942 81.6914L85.7055 100.428C85.4978 100.382 85.2086 100.317 84.8421 100.229C84.0161 100.03 82.7973 99.716 81.2335 99.2552C78.1058 98.3334 73.5983 96.8247 68.0924 94.4798C57.0808 89.7899 42.0771 81.7556 26.1315 68.3819C10.2191 55.036 2.27183 40.6724 -1.69931 29.6556C-3.68534 24.146 -4.67731 19.472 -5.17274 16.1799C-5.42043 14.5339 -5.54396 13.2336 -5.60556 12.3474C-5.62972 11.9998 -5.64435 11.716 -5.65321 11.5H6.52542Z" fill="#D8D8D8" stroke="#BFBFBF"/>
<ellipse cx="90.3552" cy="91.2735" rx="5.23987" ry="10.666" transform="rotate(22.9739 90.3552 91.2735)" fill="#BFBFBF"/>
<ellipse cx="90.3552" cy="91.2735" rx="4.02876" ry="8.2007" transform="rotate(22.9739 90.3552 91.2735)" fill="#7F7F7F"/>
<path d="M-9.0365 11.5001C-9.03421 11.5227 -9.03178 11.5461 -9.02921 11.5702C-8.99155 11.9231 -8.92243 12.4389 -8.79625 13.1028C-8.54386 14.4306 -8.06323 16.3502 -7.14966 18.7429C-5.32203 23.5295 -1.76454 30.2019 5.15376 37.812C12.076 45.4266 25.6199 55.5142 39.7987 65.1386C53.7771 74.627 68.4206 83.6966 78.0601 89.5544L61.0995 115.494C61.032 115.443 60.9567 115.386 60.8739 115.324C60.4469 115.001 59.8181 114.525 59.0114 113.912C57.398 112.684 55.0728 110.905 52.2267 108.701C46.5342 104.292 38.7584 98.1809 30.4246 91.3721C13.7412 77.7416 -5.12732 61.3557 -14.0285 50.2292C-22.9206 39.1141 -26.7562 29.2974 -28.3729 22.2775C-29.1816 18.7664 -29.4357 15.9522 -29.4886 14.0218C-29.515 13.0566 -29.4912 12.3124 -29.4611 11.8125C-29.454 11.6947 -29.4466 11.5904 -29.4394 11.5001H-9.0365Z" fill="#D8D8D8" stroke="#BFBFBF"/>
<ellipse cx="69.8533" cy="102.717" rx="8.9222" ry="16.0374" transform="rotate(34.0695 69.8533 102.717)" fill="#BFBFBF"/>
<ellipse cx="69.8532" cy="102.717" rx="7.28698" ry="13.0981" transform="rotate(34.0695 69.8532 102.717)" fill="#7F7F7F"/>
</g>
</svg>
