<?xml version="1.0" encoding="UTF-8" standalone="no"?>
<!-- Generator: Adobe Illustrator 18.1.1, SVG Export Plug-In . SVG Version: 6.00 Build 0)  -->

<svg
   xmlns:dc="http://purl.org/dc/elements/1.1/"
   xmlns:cc="http://creativecommons.org/ns#"
   xmlns:rdf="http://www.w3.org/1999/02/22-rdf-syntax-ns#"
   xmlns:svg="http://www.w3.org/2000/svg"
   xmlns="http://www.w3.org/2000/svg"
   xmlns:sodipodi="http://sodipodi.sourceforge.net/DTD/sodipodi-0.dtd"
   xmlns:inkscape="http://www.inkscape.org/namespaces/inkscape"
   version="1.1"
   id="Capa_1"
   x="0px"
   y="0px"
   viewBox="0 0 40 40"
   xml:space="preserve"
   sodipodi:docname="import.svg"
   width="40"
   height="40"
   inkscape:version="0.92.4 (5da689c313, 2019-01-14)"><metadata
   id="metadata45"><rdf:RDF><cc:Work
       rdf:about=""><dc:format>image/svg+xml</dc:format><dc:type
         rdf:resource="http://purl.org/dc/dcmitype/StillImage" /><dc:title></dc:title></cc:Work></rdf:RDF></metadata><defs
   id="defs43">
	
	
	
</defs><sodipodi:namedview
   pagecolor="#ffffff"
   bordercolor="#666666"
   borderopacity="1"
   objecttolerance="10"
   gridtolerance="10"
   guidetolerance="10"
   inkscape:pageopacity="0"
   inkscape:pageshadow="2"
   inkscape:window-width="1920"
   inkscape:window-height="1017"
   id="namedview41"
   showgrid="false"
   inkscape:pagecheckerboard="true"
   inkscape:zoom="9.076923"
   inkscape:cx="16.659408"
   inkscape:cy="15.82212"
   inkscape:window-x="1912"
   inkscape:window-y="-8"
   inkscape:window-maximized="1"
   inkscape:current-layer="Capa_1" />
<path
   style="fill:#ffffff;fill-opacity:1;stroke-width:0.84615386"
   d="M -0.109375 0.0078125 L -0.109375 40.007812 L 39.890625 40.007812 L 39.890625 0.0078125 L -0.109375 0.0078125 z M 11.539062 9 L 28.460938 9 C 29.862168 9 31 10.137833 31 11.539062 L 31 14.923828 L 29.308594 14.923828 L 29.308594 11.539062 C 29.308594 11.072832 28.928013 10.691406 28.460938 10.691406 L 11.539062 10.691406 C 11.071986 10.691406 10.691406 11.072833 10.691406 11.539062 L 10.691406 14.923828 L 9 14.923828 L 9 11.539062 C 9 10.137833 10.137833 9 11.539062 9 z M 19.984375 13.507812 C 20.444625 13.508447 20.904744 13.975481 21.835938 14.90625 L 27.394531 20.462891 C 28.415839 21.487583 28.181358 21.691406 26.988281 21.691406 L 24.230469 21.691406 L 24.230469 28.460938 C 24.230469 29.863013 23.092637 31 21.691406 31 L 18.308594 31 C 16.907363 31 15.769531 29.863014 15.769531 28.460938 L 15.769531 21.691406 L 12.974609 21.691406 C 11.897456 21.691406 11.550112 21.48869 12.572266 20.464844 L 18.130859 14.90625 C 19.063744 13.972943 19.524125 13.507178 19.984375 13.507812 z "
   id="path2" />
<g
   id="g10"
   transform="translate(0,14)">
</g>
<g
   id="g12"
   transform="translate(0,14)">
</g>
<g
   id="g14"
   transform="translate(0,14)">
</g>
<g
   id="g16"
   transform="translate(0,14)">
</g>
<g
   id="g18"
   transform="translate(0,14)">
</g>
<g
   id="g20"
   transform="translate(0,14)">
</g>
<g
   id="g22"
   transform="translate(0,14)">
</g>
<g
   id="g24"
   transform="translate(0,14)">
</g>
<g
   id="g26"
   transform="translate(0,14)">
</g>
<g
   id="g28"
   transform="translate(0,14)">
</g>
<g
   id="g30"
   transform="translate(0,14)">
</g>
<g
   id="g32"
   transform="translate(0,14)">
</g>
<g
   id="g34"
   transform="translate(0,14)">
</g>
<g
   id="g36"
   transform="translate(0,14)">
</g>
<g
   id="g38"
   transform="translate(0,14)">
</g>
<rect
   style="fill:none;fill-opacity:1;stroke:none;stroke-width:3.2692914;stroke-linecap:round;stroke-linejoin:bevel;stroke-miterlimit:4;stroke-dasharray:3.2692914, 6.53858280000000036;stroke-dashoffset:0;stroke-opacity:1"
   id="rect854"
   width="40.101696"
   height="39.991528"
   x="-0.11016949"
   y="0.0084745763" /><rect
   style="fill:none;fill-opacity:1;stroke:#c9c9c9;stroke-width:0;stroke-linecap:round;stroke-linejoin:bevel;stroke-miterlimit:4;stroke-dasharray:none;stroke-dashoffset:0;stroke-opacity:1"
   id="rect4540"
   width="4.9576273"
   height="25.338984"
   x="-0.11016949"
   y="-2.1949155" /><rect
   style="fill:none;fill-opacity:1;stroke:#c9c9c9;stroke-width:0;stroke-linecap:round;stroke-linejoin:bevel;stroke-miterlimit:4;stroke-dasharray:none;stroke-dashoffset:0;stroke-opacity:1"
   id="rect4553"
   width="20.601696"
   height="12.228814"
   x="10.245763"
   y="6.0677962" /><rect
   style="fill:none;fill-opacity:1;stroke:#c9c9c9;stroke-width:0;stroke-linecap:round;stroke-linejoin:bevel;stroke-miterlimit:4;stroke-dasharray:none;stroke-dashoffset:0;stroke-opacity:1"
   id="rect4555"
   width="16.966103"
   height="18.949152"
   x="9.1525412"
   y="-29.415255"
   transform="rotate(90)" /></svg>