<?xml version="1.0" encoding="UTF-8" standalone="no"?>
<svg
   xmlns:dc="http://purl.org/dc/elements/1.1/"
   xmlns:cc="http://creativecommons.org/ns#"
   xmlns:rdf="http://www.w3.org/1999/02/22-rdf-syntax-ns#"
   xmlns:svg="http://www.w3.org/2000/svg"
   xmlns="http://www.w3.org/2000/svg"
   xmlns:sodipodi="http://sodipodi.sourceforge.net/DTD/sodipodi-0.dtd"
   xmlns:inkscape="http://www.inkscape.org/namespaces/inkscape"
   version="1.1"
   id="Capa_1"
   x="0px"
   y="0px"
   width="42"
   height="44"
   viewBox="0 -1 48 48"
   sodipodi:docname="compatible_units.svg"
   inkscape:version="1.0.2 (e86c870879, 2021-01-15, custom)">
  <metadata
     id="metadata36">
    <rdf:RDF>
      <cc:Work
         rdf:about="">
        <dc:format>image/svg+xml</dc:format>
        <dc:type
           rdf:resource="http://purl.org/dc/dcmitype/StillImage" />
        <dc:title></dc:title>
      </cc:Work>
    </rdf:RDF>
  </metadata>
  <defs
     id="defs34" />
  <sodipodi:namedview
     pagecolor="#ffffff"
     bordercolor="#666666"
     borderopacity="1"
     objecttolerance="10"
     gridtolerance="10"
     guidetolerance="10"
     inkscape:pageopacity="0"
     inkscape:pageshadow="2"
     inkscape:window-width="2560"
     inkscape:window-height="1377"
     id="namedview32"
     showgrid="true"
     inkscape:zoom="14.849242"
     inkscape:cx="23.491284"
     inkscape:cy="28.811414"
     inkscape:window-x="1912"
     inkscape:window-y="-8"
     inkscape:window-maximized="1"
     inkscape:current-layer="Capa_1"
     inkscape:document-rotation="0" />
  <path
     id="rect932"
     style="color:#000000;font-style:normal;font-variant:normal;font-weight:normal;font-stretch:normal;font-size:medium;line-height:normal;font-family:sans-serif;font-variant-ligatures:normal;font-variant-position:normal;font-variant-caps:normal;font-variant-numeric:normal;font-variant-alternates:normal;font-variant-east-asian:normal;font-feature-settings:normal;font-variation-settings:normal;text-indent:0;text-align:start;text-decoration:none;text-decoration-line:none;text-decoration-style:solid;text-decoration-color:#000000;letter-spacing:normal;word-spacing:normal;text-transform:none;writing-mode:lr-tb;direction:ltr;text-orientation:mixed;dominant-baseline:auto;baseline-shift:baseline;text-anchor:start;white-space:normal;shape-padding:0;shape-margin:0;inline-size:0;clip-rule:nonzero;display:inline;overflow:visible;visibility:visible;isolation:auto;mix-blend-mode:normal;color-interpolation:sRGB;color-interpolation-filters:linearRGB;solid-color:#000000;solid-opacity:1;vector-effect:none;fill:#ffffff;fill-opacity:1;fill-rule:nonzero;stroke:none;stroke-linecap:butt;stroke-linejoin:round;stroke-miterlimit:4;stroke-dasharray:none;stroke-dashoffset:0;stroke-opacity:1;color-rendering:auto;image-rendering:auto;shape-rendering:auto;text-rendering:auto;enable-background:accumulate;stop-color:#000000;stop-opacity:1;opacity:1"
     d="M 0 0 L 0 48.015625 L 48.015625 48.015625 L 48.015625 0 L 0 0 z M 12.175781 9.84375 L 34.357422 9.84375 C 35.610473 9.84375 36.65625 10.889527 36.65625 12.142578 L 36.65625 34.148438 C 36.65625 35.401488 35.610473 36.449219 34.357422 36.449219 L 12.175781 36.449219 C 10.92273 36.449219 9.875 35.401488 9.875 34.148438 L 9.875 12.142578 C 9.875 10.889527 10.92273 9.84375 12.175781 9.84375 z M 12.320312 12.287109 L 12.320312 34.003906 L 34.212891 34.003906 L 34.212891 12.287109 L 12.320312 12.287109 z M 15.324219 15.890625 L 17.892578 15.890625 L 17.892578 18.759766 L 15.324219 18.759766 L 15.324219 15.890625 z M 20.458984 15.890625 L 30.724609 15.890625 L 30.724609 18.759766 L 20.458984 18.759766 L 20.458984 15.890625 z M 15.324219 21.630859 L 17.892578 21.630859 L 17.892578 24.5 L 15.324219 24.5 L 15.324219 21.630859 z M 20.458984 21.630859 L 30.724609 21.630859 L 30.724609 24.5 L 20.458984 24.5 L 20.458984 21.630859 z M 15.324219 27.369141 L 17.892578 27.369141 L 17.892578 30.240234 L 15.324219 30.240234 L 15.324219 27.369141 z M 20.458984 27.369141 L 30.724609 27.369141 L 30.724609 30.240234 L 20.458984 30.240234 L 20.458984 27.369141 z " />
  <rect
     style="fill:none;fill-opacity:0;stroke-width:2.445;stroke-miterlimit:4;stroke-dasharray:none"
     id="rect850"
     width="48.015919"
     height="48.015919"
     x="0"
     y="0" />
</svg>
