<?xml version="1.0" encoding="UTF-8" standalone="no"?>

<svg
   xmlns:dc="http://purl.org/dc/elements/1.1/"
   xmlns:cc="http://creativecommons.org/ns#"
   xmlns:rdf="http://www.w3.org/1999/02/22-rdf-syntax-ns#"
   xmlns:svg="http://www.w3.org/2000/svg"
   xmlns="http://www.w3.org/2000/svg"
   xmlns:sodipodi="http://sodipodi.sourceforge.net/DTD/sodipodi-0.dtd"
   xmlns:inkscape="http://www.inkscape.org/namespaces/inkscape"
   version="1.1"
   id="Capa_1"
   x="0px"
   y="0px"
   width="24"
   height="24"
   viewBox="0 0 24.000001 23.999999"
   xml:space="preserve"
   sodipodi:docname="setting.svg"
   inkscape:version="0.92.4 (5da689c313, 2019-01-14)"><metadata
   id="metadata42"><rdf:RDF><cc:Work
       rdf:about=""><dc:format>image/svg+xml</dc:format><dc:type
         rdf:resource="http://purl.org/dc/dcmitype/StillImage" /><dc:title></dc:title></cc:Work></rdf:RDF></metadata><defs
   id="defs40" /><sodipodi:namedview
   pagecolor="#ffffff"
   bordercolor="#666666"
   borderopacity="1"
   objecttolerance="10"
   gridtolerance="10"
   guidetolerance="10"
   inkscape:pageopacity="0"
   inkscape:pageshadow="2"
   inkscape:window-width="1920"
   inkscape:window-height="1017"
   id="namedview38"
   showgrid="false"
   inkscape:zoom="1.8602818"
   inkscape:cx="259.24687"
   inkscape:cy="-113.99513"
   inkscape:window-x="1912"
   inkscape:window-y="-8"
   inkscape:window-maximized="1"
   inkscape:current-layer="Capa_1" />
<g
   id="g5"
   transform="matrix(0.04800708,0,0,0.04800708,-0.18058447,-0.3612396)"
   style="fill:#535353;fill-opacity:1">
	<g
   id="settings"
   style="fill:#535353;fill-opacity:1">
		<path
   d="m 440.813,280.5 c 0,-7.65 2.55,-15.3 2.55,-25.5 0,-10.2 0,-17.85 -2.55,-25.5 l 53.55,-43.35 c 5.1,-5.1 5.1,-10.2 2.55,-15.3 l -51,-89.25 c -2.55,-2.55 -7.649,-5.1 -15.3,-2.55 l -63.75,25.5 c -12.75,-10.2 -28.05,-17.85 -43.35,-25.5 l -10.2,-66.3 C 315.863,5.1 308.212,0 303.113,0 h -102 c -5.101,0 -12.75,5.1 -12.75,10.2 l -10.2,68.85 c -15.3,5.1 -28.05,15.3 -43.35,25.5 l -61.2,-25.5 c -7.65,-2.55 -12.75,0 -17.851,5.1 l -51,89.25 c -2.55,2.55 0,10.2 5.1,15.3 l 53.55,40.8 c 0,7.65 -2.55,15.3 -2.55,25.5 0,10.2 0,17.85 2.55,25.5 l -53.55,43.35 c -5.1,5.101 -5.1,10.2 -2.55,15.301 l 51,89.25 c 2.55,2.55 7.649,5.1 15.3,2.55 l 63.75,-25.5 c 12.75,10.2 28.05,17.85 43.35,25.5 l 10.2,66.3 c 0,5.1 5.1,10.2 12.75,10.2 h 102 c 5.101,0 12.75,-5.101 12.75,-10.2 l 10.2,-66.3 c 15.3,-7.65 30.6,-15.3 43.35,-25.5 l 63.75,25.5 c 5.101,2.55 12.75,0 15.301,-5.101 l 51,-89.25 c 2.55,-5.1 2.55,-12.75 -2.551,-15.3 z m -188.7,63.75 c -48.45,0 -89.25,-40.8 -89.25,-89.25 0,-48.45 40.8,-89.25 89.25,-89.25 48.45,0 89.25,40.8 89.25,89.25 0,48.45 -40.8,89.25 -89.25,89.25 z"
   id="path2"
   inkscape:connector-curvature="0"
   style="fill:#535353;fill-opacity:1" />
	</g>
</g>
<g
   id="g7"
   transform="translate(0,-483.45001)">
</g>
<g
   id="g9"
   transform="translate(0,-483.45001)">
</g>
<g
   id="g11"
   transform="translate(0,-483.45001)">
</g>
<g
   id="g13"
   transform="translate(0,-483.45001)">
</g>
<g
   id="g15"
   transform="translate(0,-483.45001)">
</g>
<g
   id="g17"
   transform="translate(0,-483.45001)">
</g>
<g
   id="g19"
   transform="translate(0,-483.45001)">
</g>
<g
   id="g21"
   transform="translate(0,-483.45001)">
</g>
<g
   id="g23"
   transform="translate(0,-483.45001)">
</g>
<g
   id="g25"
   transform="translate(0,-483.45001)">
</g>
<g
   id="g27"
   transform="translate(0,-483.45001)">
</g>
<g
   id="g29"
   transform="translate(0,-483.45001)">
</g>
<g
   id="g31"
   transform="translate(0,-483.45001)">
</g>
<g
   id="g33"
   transform="translate(0,-483.45001)">
</g>
<g
   id="g35"
   transform="translate(0,-483.45001)">
</g>
</svg>