<?xml version="1.0" encoding="UTF-8" standalone="no"?>
<!-- Created with Inkscape (http://www.inkscape.org/) -->

<svg
   xmlns:dc="http://purl.org/dc/elements/1.1/"
   xmlns:cc="http://creativecommons.org/ns#"
   xmlns:rdf="http://www.w3.org/1999/02/22-rdf-syntax-ns#"
   xmlns:svg="http://www.w3.org/2000/svg"
   xmlns="http://www.w3.org/2000/svg"
   xmlns:sodipodi="http://sodipodi.sourceforge.net/DTD/sodipodi-0.dtd"
   xmlns:inkscape="http://www.inkscape.org/namespaces/inkscape"
   width="25.6"
   height="25.6"
   viewBox="0 0 24 24"
   id="svg2"
   version="1.1"
   inkscape:version="0.92.4 (5da689c313, 2019-01-14)"
   sodipodi:docname="splice_closure.svg">
  <defs
     id="defs4" />
  <sodipodi:namedview
     id="base"
     pagecolor="#ffffff"
     bordercolor="#666666"
     borderopacity="1.0"
     inkscape:pageopacity="0.0"
     inkscape:pageshadow="2"
     inkscape:zoom="22.627417"
     inkscape:cx="0.28144405"
     inkscape:cy="11.858881"
     inkscape:document-units="px"
     inkscape:current-layer="layer1"
     showgrid="true"
     units="px"
     inkscape:window-width="1661"
     inkscape:window-height="838"
     inkscape:window-x="103"
     inkscape:window-y="26"
     inkscape:window-maximized="0"
     showguides="false"
     inkscape:snap-grids="false">
    <inkscape:grid
       type="xygrid"
       id="grid4148"
       originx="0"
       originy="0"
       spacingx="1"
       spacingy="1" />
  </sodipodi:namedview>
  <metadata
     id="metadata7">
    <rdf:RDF>
      <cc:Work
         rdf:about="">
        <dc:format>image/svg+xml</dc:format>
        <dc:type
           rdf:resource="http://purl.org/dc/dcmitype/StillImage" />
        <dc:title />
      </cc:Work>
    </rdf:RDF>
  </metadata>
  <g
     inkscape:label="Layer 1"
     inkscape:groupmode="layer"
     id="layer1"
     transform="translate(0,-1028.3622)">
    <path
       id="path4531-1-3-4"
       transform="scale(-1,1)"
       style="fill:none;stroke:#b87333;stroke-width:2.34375;stroke-miterlimit:4;stroke-dasharray:none;stroke-opacity:1"
       d="m -20.97145,1040.7265 a 3,4.1641178 0 0 1 0.889316,-2.9431 3,4.1641178 0 0 1 2.129195,-1.2049 m -3.018511,4.1481 a 3,4.1641178 0 0 0 0.889316,2.9432 3,4.1641178 0 0 0 2.129195,1.2048 m 14.0185124,-4.1481 a 3,4.1641178 0 0 0 -0.8893159,-2.9431 3,4.1641178 0 0 0 -2.1291949,-1.2049 m -2e-7,0 H -17.952938 m 11.0000011,8.296 H -17.952937 m 14.0185114,-4.1479 a 3,4.1641178 0 0 1 -0.889316,2.9432 3,4.1641178 0 0 1 -2.1291949,1.2048" />
  </g>
</svg>
