<?xml version="1.0" encoding="UTF-8" standalone="no"?>
<!-- Created with Inkscape (http://www.inkscape.org/) -->

<svg
   xmlns:dc="http://purl.org/dc/elements/1.1/"
   xmlns:cc="http://creativecommons.org/ns#"
   xmlns:rdf="http://www.w3.org/1999/02/22-rdf-syntax-ns#"
   xmlns:svg="http://www.w3.org/2000/svg"
   xmlns="http://www.w3.org/2000/svg"
   xmlns:sodipodi="http://sodipodi.sourceforge.net/DTD/sodipodi-0.dtd"
   xmlns:inkscape="http://www.inkscape.org/namespaces/inkscape"
   width="24"
   height="24"
   viewBox="0 0 24.000001 24"
   id="svg2"
   version="1.1"
   inkscape:version="0.91 r13725"
   sodipodi:docname="copper_bridge_tap.svg">
  <defs
     id="defs4" />
  <sodipodi:namedview
     id="base"
     pagecolor="#ffffff"
     bordercolor="#666666"
     borderopacity="1.0"
     inkscape:pageopacity="0.0"
     inkscape:pageshadow="2"
     inkscape:zoom="15.839192"
     inkscape:cx="1.7552237"
     inkscape:cy="22.513264"
     inkscape:document-units="px"
     inkscape:current-layer="layer1"
     showgrid="false"
     units="px"
     inkscape:window-width="1920"
     inkscape:window-height="1018"
     inkscape:window-x="-8"
     inkscape:window-y="-8"
     inkscape:window-maximized="1" />
  <metadata
     id="metadata7">
    <rdf:RDF>
      <cc:Work
         rdf:about="">
        <dc:format>image/svg+xml</dc:format>
        <dc:type
           rdf:resource="http://purl.org/dc/dcmitype/StillImage" />
        <dc:title></dc:title>
      </cc:Work>
    </rdf:RDF>
  </metadata>
  <g id="layer1" transform="matrix(0.9999999999999999, 0, 0, 0.9999999999999999, -8.881784197001252e-16, -1028.3623046875)">
    <path style="fill:none;fill-rule:evenodd;stroke:#b87333;stroke-width:1.90426016;stroke-linecap:round;stroke-linejoin:miter;stroke-miterlimit:4;stroke-dasharray:none;stroke-opacity:1" d="m 1.0314766,1040.4887 21.7734274,0 0.09041,0" id="path3353"/>
    <circle style="fill:#000000;fill-opacity:0;stroke:#b87333;stroke-width:2;stroke-linecap:round;stroke-miterlimit:4;stroke-dasharray:none;stroke-opacity:1" id="path4157" cx="12.279667" cy="1040.4614" r="5.5874062"/>
    <path style="fill:#000000;fill-opacity:0;stroke:#b87333;stroke-width:1;stroke-linecap:round;stroke-miterlimit:4;stroke-dasharray:none;stroke-opacity:1" id="path4253" d="m 8.3990794,1041.384 c 0.1744448,0.5038 0.4275049,0.974 0.6944641,1.4336 0.147805,0.2507 0.3258042,0.4828 0.5171485,0.7016 0.1194784,0.107 0.2519242,0.1977 0.3839871,0.2882 0.1551049,0.1227 0.3310639,0.2119 0.4975379,0.3164 0.172077,0.1036 0.358406,0.1814 0.531043,0.2834 0.07283,0.048 0.156409,0.071 0.237553,0.1 0,0 -0.775551,0.5239 -0.775551,0.5239 l 0,0 c -0.08569,-0.03 -0.16945,-0.065 -0.245699,-0.1152 -0.173879,-0.099 -0.3553693,-0.1853 -0.5276254,-0.2878 -0.171489,-0.1009 -0.3441815,-0.1989 -0.5042575,-0.318 -0.1383177,-0.094 -0.275819,-0.1912 -0.3940383,-0.3108 -0.190112,-0.2268 -0.362826,-0.4693 -0.5074355,-0.7278 -0.2601792,-0.469 -0.5002296,-0.9481 -0.7198633,-1.4376 0,0 0.8127364,-0.4498 0.8127364,-0.4498 z"/>
    <path style="fill:#000000;fill-opacity:0;stroke:#b87333;stroke-width:1;stroke-linecap:round;stroke-miterlimit:4;stroke-dasharray:none;stroke-opacity:1" id="path4255" d="m 9.546398,1041.0738 c 0.516145,0.2424 0.994226,0.5558 1.464015,0.8769 0.33173,0.2151 0.662461,0.4318 0.989933,0.6534 0.192345,0.1206 0.343444,0.2849 0.495595,0.4499 0.09968,0.1263 0.145818,0.2709 0.1457,0.43 0.0035,0.1447 -0.05175,0.273 -0.108443,0.4024 -0.05883,0.1177 -0.08791,0.2458 -0.148125,0.3627 -0.04935,0.097 -0.101402,0.191 -0.148265,0.2887 -0.04877,0.1027 -0.11397,0.1956 -0.15606,0.3015 -0.05646,0.1162 -0.10532,0.2359 -0.159187,0.3534 -0.01985,0.055 -0.04513,0.1052 -0.07555,0.1551 0,0 -0.862771,0.367 -0.862771,0.367 l 0,0 c 0.0449,-0.039 0.07272,-0.072 0.08542,-0.1324 0.05213,-0.1161 0.09568,-0.2364 0.163458,-0.3448 0.03192,-0.1125 0.08488,-0.2136 0.152128,-0.3092 0.0417,-0.1025 0.09409,-0.1981 0.14578,-0.295 0.01899,-0.035 0.04268,-0.066 0.05986,-0.1019 0.03972,-0.082 0.04377,-0.1783 0.09172,-0.2573 0.05905,-0.1171 0.120091,-0.2352 0.124154,-0.3682 0.01092,-0.1372 -0.01923,-0.2589 -0.108686,-0.3678 -0.144588,-0.1616 -0.287568,-0.3223 -0.475048,-0.4373 -0.321448,-0.2247 -0.646294,-0.4445 -0.969635,-0.6666 -0.4645958,-0.3236 -0.9425881,-0.6456 -1.4801036,-0.8353 0,0 0.7741146,-0.5252 0.7741146,-0.5252 z"/>
    <path style="fill:#000000;fill-opacity:0;stroke:#b87333;stroke-width:1;stroke-linecap:round;stroke-miterlimit:4;stroke-dasharray:none;stroke-opacity:1" id="path4257" d="m 11.677594,1040.9284 c 0.121991,0.162 0.193689,0.3535 0.26596,0.5411 0.03807,0.098 0.05905,0.2004 0.07514,0.3039 0,0 -0.827892,0.4363 -0.827892,0.4363 l 0,0 c -0.01191,-0.098 -0.02827,-0.1945 -0.06219,-0.2874 -0.06553,-0.1789 -0.129157,-0.3645 -0.254788,-0.5113 0,0 0.803774,-0.4826 0.803774,-0.4826 z"/>
    <path style="fill:#000000;fill-opacity:0;stroke:#b87333;stroke-width:1;stroke-linecap:round;stroke-miterlimit:4;stroke-dasharray:none;stroke-opacity:1" id="path4259" d="m 9.476279,1042.1104 c 0.3182946,0.2726 0.596945,0.5872 0.892391,0.8836 0.187621,0.1914 0.384434,0.3734 0.551288,0.5839 0.07761,0.082 0.167839,0.1548 0.263071,0.2162 0.121808,0.1021 0.259382,0.182 0.400748,0.2535 0.106187,0.052 0.221241,0.07 0.337476,0.081 0,0 -0.764306,0.5409 -0.764306,0.5409 l 0,0 c -0.123178,-0.02 -0.24351,-0.05 -0.353949,-0.1102 -0.142089,-0.077 -0.281749,-0.1594 -0.408563,-0.2604 -0.100939,-0.07 -0.20148,-0.145 -0.277843,-0.2425 -0.1580214,-0.2105 -0.3422838,-0.3973 -0.5235179,-0.5876 -0.2902445,-0.2968 -0.5674452,-0.6135 -0.9071486,-0.8557 0,0 0.7903535,-0.5025 0.7903535,-0.5025 z"/>
    <path style="fill:#000000;fill-opacity:0;stroke:#b87333;stroke-width:1;stroke-linecap:round;stroke-miterlimit:4;stroke-dasharray:none;stroke-opacity:1" id="path4261" d="m 14.049651,1041.0404 c -0.112689,0.5121 -0.170501,1.0337 -0.229147,1.5542 -0.04424,0.4141 -0.07073,0.8297 -0.08271,1.2459 -0.0052,0.195 -0.003,0.39 -0.0013,0.585 0.0088,0.125 -0.02486,0.2463 -0.04141,0.3691 -0.0054,0.096 -0.04227,0.2156 0.02855,0.2944 0,0 -0.805768,0.4799 -0.805768,0.4799 l 0,0 c -0.08725,-0.122 -0.07333,-0.2148 -0.062,-0.3589 0.01202,-0.1212 0.0451,-0.2386 0.04776,-0.3598 4.81e-4,-0.1976 0.0022,-0.3953 0.0086,-0.5928 0.0185,-0.4232 0.05978,-0.8448 0.106967,-1.2656 0.05627,-0.5129 0.113157,-1.0261 0.190159,-1.5364 0,0 0.840287,-0.415 0.840287,-0.415 z"/>
    <path style="fill:#000000;fill-opacity:0;stroke:#b87333;stroke-width:1;stroke-linecap:round;stroke-miterlimit:4;stroke-dasharray:none;stroke-opacity:1" id="path4263" d="m 15.25418,1041.0983 c -0.0095,0.2713 -0.0046,0.5429 -0.0062,0.8143 -9.4e-5,0.2505 0.0022,0.501 0.0027,0.7514 7.25e-4,0.1955 0.0012,0.3909 9.27e-4,0.5864 2.78e-4,0.1249 2.65e-4,0.062 2.6e-5,0.1888 0,0 -0.830069,0.4229 -0.830069,0.4229 l 0,0 c -2.39e-4,-0.1266 -2.51e-4,-0.064 2.7e-5,-0.1888 -3.08e-4,-0.1958 2.03e-4,-0.3915 9.26e-4,-0.5873 5.42e-4,-0.2514 0.0028,-0.5028 0.0027,-0.7542 -0.0016,-0.2693 0.0034,-0.5388 -0.0062,-0.808 0,0 0.835129,-0.4255 0.835129,-0.4255 z"/>
    <path style="fill:#000000;fill-opacity:0;stroke:#b87333;stroke-width:1;stroke-linecap:round;stroke-miterlimit:4;stroke-dasharray:none;stroke-opacity:1" id="path4265" d="m 13.696333,1044.9836 c 0.496102,-0.3492 1.042826,-0.5869 1.583603,-0.8477 0.196599,-0.098 0.402213,-0.1753 0.601386,-0.2676 0.0237,-0.015 0.04711,-0.031 0.07111,-0.045 0.02229,-0.014 0.04463,-0.027 0.0677,-0.039 0.02146,-0.011 0.08679,-0.044 0.06579,-0.031 -0.24805,0.1444 -0.497515,0.2864 -0.747139,0.428 -0.03475,0.02 0.06627,-0.045 0.09759,-0.07 0.103847,-0.087 0.176411,-0.1885 0.216482,-0.3176 0.03381,-0.1666 0.03197,-0.3378 0.03244,-0.507 -4.55e-4,-0.1407 -0.0019,-0.2814 -0.0026,-0.422 -6.02e-4,-0.1266 -6.75e-4,-0.2532 -7.29e-4,-0.3798 -3e-5,-0.126 -1.3e-5,-0.2521 -6e-6,-0.3782 8e-6,-0.1262 10e-6,-0.2525 1.1e-5,-0.3787 10e-7,-0.1263 10e-7,-0.2525 10e-7,-0.3788 0,-0.063 0,-0.1263 0,-0.1894 0,0 0.834738,-0.4253 0.834738,-0.4253 l 0,0 c 0,0.063 0,0.1262 0,0.1894 0,0.1262 0,0.2525 0,0.3788 -1e-6,0.1262 -2e-6,0.2525 -4e-6,0.3787 -2e-6,0.1261 -7e-6,0.2521 1.2e-5,0.3782 2.9e-5,0.1265 7.4e-5,0.2531 2.99e-4,0.3796 2.67e-4,0.1413 8.06e-4,0.2826 3.85e-4,0.424 -0.0011,0.1753 -5.23e-4,0.3512 -0.0211,0.5255 -0.02564,0.1421 -0.08015,0.2696 -0.193663,0.3646 -0.288572,0.3459 -0.766161,0.4719 -1.151755,0.6953 -0.197974,0.087 -0.398327,0.1676 -0.592263,0.2633 -0.359121,0.1719 -1.49043,0.7421 0.0088,-0.072 0,0 -0.871064,0.3441 -0.871064,0.3441 z"/>
    <path style="fill:#000000;fill-opacity:0;stroke:#b87333;stroke-width:1;stroke-linecap:round;stroke-miterlimit:4;stroke-dasharray:none;stroke-opacity:1" id="path-1" d="M 8.399 1037.053 C 8.574 1037.557 8.827 1038.027 9.094 1038.487 C 9.241 1038.737 9.419 1038.969 9.611 1039.188 C 9.73 1039.295 9.863 1039.386 9.995 1039.476 C 10.15 1039.599 10.326 1039.688 10.492 1039.793 C 10.664 1039.896 10.851 1039.974 11.023 1040.076 C 11.096 1040.124 11.18 1040.147 11.261 1040.176 C 11.261 1040.176 10.485 1040.7 10.485 1040.7 C 10.4 1040.67 10.316 1040.635 10.24 1040.585 C 10.066 1040.486 9.884 1040.4 9.712 1040.297 C 9.54 1040.196 9.368 1040.098 9.208 1039.979 C 9.069 1039.885 8.932 1039.788 8.814 1039.668 C 8.624 1039.442 7.731 1039.92 7.586 1039.662 C 7.326 1039.193 7.806 1037.992 7.586 1037.503 C 7.586 1037.503 8.399 1037.053 8.399 1037.053 Z"/>
    <path style="fill:#000000;fill-opacity:0;stroke:#b87333;stroke-width:1;stroke-linecap:round;stroke-miterlimit:4;stroke-dasharray:none;stroke-opacity:1" id="path-2" d="M 13.696 1035.429 C 14.213 1035.671 10.541 1037.299 11.01 1037.62 C 11.342 1037.835 11.673 1038.052 12 1038.273 C 12.193 1038.394 12.344 1038.558 12.496 1038.723 C 12.596 1038.849 12.642 1038.994 12.642 1039.153 C 12.645 1039.298 12.59 1039.426 12.533 1039.555 C 12.474 1039.673 12.445 1039.801 12.385 1039.918 C 12.336 1040.015 12.284 1040.109 12.237 1040.207 C 12.188 1040.31 12.123 1040.402 12.081 1040.508 C 12.024 1040.625 11.975 1040.744 11.922 1040.862 C 11.902 1040.917 12.672 1042.676 12.642 1042.726 C 12.642 1042.726 10.983 1041.384 10.983 1041.384 C 11.028 1041.345 11.056 1041.312 11.069 1041.251 C 11.121 1041.135 11.164 1041.015 11.232 1040.907 C 11.264 1040.794 11.317 1040.693 11.384 1040.597 C 11.426 1040.495 11.478 1040.399 11.53 1040.302 C 11.549 1040.267 11.573 1040.236 11.59 1040.201 C 11.63 1040.119 11.634 1040.022 11.682 1039.943 C 11.741 1039.826 11.802 1039.708 11.806 1039.575 C 11.817 1039.438 11.787 1039.316 11.697 1039.207 C 11.552 1039.046 11.41 1038.885 11.222 1038.77 C 10.901 1038.545 10.576 1038.325 10.252 1038.103 C 9.788 1037.78 9.31 1037.458 8.772 1037.268 C 8.772 1037.268 13.696 1035.429 13.696 1035.429 Z"/>
    <path style="fill:#000000;fill-opacity:0;stroke:#b87333;stroke-width:1;stroke-linecap:round;stroke-miterlimit:4;stroke-dasharray:none;stroke-opacity:1" id="path-3" d="M 11.921 1037.148 C 12.043 1037.31 11.946 1036.301 12.019 1036.489 C 12.057 1036.587 12.831 1038.173 12.847 1038.276 C 12.847 1038.276 11.191 1037.879 11.191 1037.879 C 11.179 1037.781 11.163 1037.684 11.129 1037.591 C 11.063 1037.412 10.137 1037.029 10.012 1036.882 C 10.012 1036.882 11.921 1037.148 11.921 1037.148 Z"/>
    <path style="fill:#000000;fill-opacity:0;stroke:#b87333;stroke-width:1;stroke-linecap:round;stroke-miterlimit:4;stroke-dasharray:none;stroke-opacity:1" id="path-4" d="M 9.476 1037.779 C 9.795 1038.052 10.073 1038.367 10.369 1038.663 C 10.556 1038.854 10.753 1039.036 10.92 1039.247 C 10.998 1039.329 11.088 1039.402 11.183 1039.463 C 11.305 1039.565 11.442 1039.645 11.584 1039.717 C 11.69 1039.769 11.805 1039.787 11.921 1039.798 C 11.921 1039.798 11.157 1040.339 11.157 1040.339 C 11.034 1040.319 10.913 1040.289 10.803 1040.228 C 10.661 1040.151 10.521 1040.069 10.394 1039.968 C 10.293 1039.898 10.193 1039.823 10.117 1039.725 C 9.959 1039.515 9.774 1039.328 9.593 1039.138 C 9.303 1038.841 8.235 1038.948 7.895 1038.706 C 7.895 1038.706 9.476 1037.78 9.476 1037.78 L 9.476 1037.779 Z"/>
    <path style="fill:#000000;fill-opacity:0;stroke:#b87333;stroke-width:1;stroke-linecap:round;stroke-miterlimit:4;stroke-dasharray:none;stroke-opacity:1" id="path-5" d="M 14.419 1035.974 C 14.306 1036.487 13.879 1037.743 13.821 1038.264 C 13.776 1038.678 13.75 1039.093 13.738 1039.51 C 13.733 1039.705 13.735 1039.9 13.736 1040.095 C 13.745 1040.22 13.712 1040.341 13.695 1040.464 C 13.69 1040.56 13.653 1040.679 13.724 1040.758 C 13.724 1040.758 12.918 1041.238 12.918 1041.238 C 12.831 1041.116 12.845 1041.023 12.856 1040.879 C 12.868 1040.758 12.901 1040.64 12.904 1040.519 C 12.904 1040.322 12.906 1040.124 12.912 1039.926 C 12.931 1039.503 12.972 1039.082 13.019 1038.661 C 13.075 1038.148 13.245 1036.773 13.322 1036.262 C 13.322 1036.262 14.419 1035.974 14.419 1035.974 Z"/>
    <path style="fill:#000000;fill-opacity:0;stroke:#b87333;stroke-width:1;stroke-linecap:round;stroke-miterlimit:4;stroke-dasharray:none;stroke-opacity:1" id="path-6" d="M 15.254 1036.767 C 15.245 1037.039 15.25 1037.31 15.248 1037.582 C 15.248 1037.832 15.25 1038.083 15.251 1038.333 C 15.251 1038.529 15.252 1038.724 15.252 1038.919 C 15.252 1039.044 15.252 1038.981 15.252 1039.108 C 15.252 1039.108 14.422 1039.531 14.422 1039.531 C 14.421 1039.405 14.421 1039.467 14.422 1039.342 C 14.421 1039.147 14.422 1038.951 14.423 1038.755 C 14.423 1038.504 14.425 1038.252 14.425 1038.001 C 14.424 1037.732 14.429 1037.462 14.419 1037.193 C 14.419 1037.193 15.254 1036.767 15.254 1036.767 L 15.254 1036.767 Z"/>
    <path style="fill:#000000;fill-opacity:0;stroke:#b87333;stroke-width:1;stroke-linecap:round;stroke-miterlimit:4;stroke-dasharray:none;stroke-opacity:1" id="path-7" d="M 13.696 1040.653 C 14.192 1040.303 14.739 1040.066 15.28 1039.805 C 15.477 1039.707 15.682 1039.63 15.881 1039.537 C 15.905 1039.522 15.928 1039.506 15.952 1039.492 C 15.975 1039.478 15.997 1039.465 16.02 1039.453 C 16.042 1039.442 16.107 1039.409 16.086 1039.422 C 15.838 1039.567 15.588 1039.709 15.339 1039.85 C 15.304 1039.87 15.405 1039.805 15.436 1039.78 C 15.54 1039.693 15.613 1039.592 15.653 1039.463 C 15.687 1039.296 15.685 1039.125 15.685 1038.956 C 15.685 1038.815 15.683 1038.674 15.683 1038.534 C 15.682 1038.407 15.682 1038.281 15.682 1038.154 C 15.682 1038.028 15.682 1037.902 15.682 1037.776 C 15.682 1037.65 15.682 1037.523 15.682 1037.397 C 15.682 1037.271 15.682 1037.145 15.682 1037.018 C 15.682 1036.955 15.682 1036.892 15.682 1036.829 C 15.682 1036.829 14.991 1037.294 14.991 1037.294 C 14.991 1037.357 16.517 1036.53 16.517 1036.593 C 16.517 1036.719 16.517 1036.845 16.517 1036.972 C 16.517 1037.098 16.517 1037.224 16.517 1037.35 C 16.517 1037.477 16.517 1037.603 16.517 1037.729 C 16.517 1037.855 16.517 1037.982 16.517 1038.108 C 16.517 1038.25 16.518 1038.391 16.517 1038.532 C 16.516 1038.708 16.517 1038.883 16.496 1039.058 C 16.471 1039.2 16.416 1039.327 16.303 1039.422 C 16.014 1039.768 15.536 1039.894 15.151 1040.118 C 14.953 1040.205 14.753 1040.285 14.559 1040.381 C 14.2 1040.553 13.068 1041.123 14.567 1040.309 C 14.567 1040.309 13.696 1040.653 13.696 1040.653 Z"/>
  </g>
</svg>
