<?xml version="1.0" encoding="UTF-8" standalone="no"?>
<!-- Created with Inkscape (http://www.inkscape.org/) -->

<svg
   xmlns:dc="http://purl.org/dc/elements/1.1/"
   xmlns:cc="http://creativecommons.org/ns#"
   xmlns:rdf="http://www.w3.org/1999/02/22-rdf-syntax-ns#"
   xmlns:svg="http://www.w3.org/2000/svg"
   xmlns="http://www.w3.org/2000/svg"
   xmlns:sodipodi="http://sodipodi.sourceforge.net/DTD/sodipodi-0.dtd"
   xmlns:inkscape="http://www.inkscape.org/namespaces/inkscape"
   width="24"
   height="24"
   viewBox="0 0 24.000001 24"
   id="svg2"
   version="1.1"
   inkscape:version="0.91 r13725"
   sodipodi:docname="copper_bridge_tap.svg">
  <defs
     id="defs4" />
  <sodipodi:namedview
     id="base"
     pagecolor="#ffffff"
     bordercolor="#666666"
     borderopacity="1.0"
     inkscape:pageopacity="0.0"
     inkscape:pageshadow="2"
     inkscape:zoom="15.839192"
     inkscape:cx="1.7552237"
     inkscape:cy="22.513264"
     inkscape:document-units="px"
     inkscape:current-layer="layer1"
     showgrid="false"
     units="px"
     inkscape:window-width="1920"
     inkscape:window-height="1018"
     inkscape:window-x="-8"
     inkscape:window-y="-8"
     inkscape:window-maximized="1" />
  <metadata
     id="metadata7">
    <rdf:RDF>
      <cc:Work
         rdf:about="">
        <dc:format>image/svg+xml</dc:format>
        <dc:type
           rdf:resource="http://purl.org/dc/dcmitype/StillImage" />
        <dc:title></dc:title>
      </cc:Work>
    </rdf:RDF>
  </metadata>
  <g
     inkscape:label="Layer 1"
     inkscape:groupmode="layer"
     id="layer1"
     transform="translate(0,-1028.3623)">
    <path
       style="fill:none;fill-rule:evenodd;stroke:#b87333;stroke-width:1.90426016;stroke-linecap:round;stroke-linejoin:miter;stroke-miterlimit:4;stroke-dasharray:none;stroke-opacity:1"
       d="m 1.0314766,1040.4887 21.7734274,0 0.09041,0"
       id="path3353"
       inkscape:connector-curvature="0"
       sodipodi:nodetypes="ccc" />
    <path
       style="fill:#b87333;fill-opacity:1;fill-rule:evenodd;stroke:#b87333;stroke-width:1.84473968;stroke-linecap:round;stroke-linejoin:miter;stroke-miterlimit:4;stroke-dasharray:none;stroke-opacity:1"
       d="m 12.437504,1041.2887 0,10.1517"
       id="path4155"
       inkscape:connector-curvature="0" />
    <circle
       style="fill:#000000;fill-opacity:0;stroke:#b87333;stroke-width:2;stroke-linecap:round;stroke-miterlimit:4;stroke-dasharray:none;stroke-opacity:1"
       id="path4157"
       cx="12.279667"
       cy="1040.4614"
       r="5.5874062" />
    <path
       style="fill:#000000;fill-opacity:0;stroke:#b87333;stroke-width:1;stroke-linecap:round;stroke-miterlimit:4;stroke-dasharray:none;stroke-opacity:1"
       id="path4253"
       d="m 8.3990794,1041.384 c 0.1744448,0.5038 0.4275049,0.974 0.6944641,1.4336 0.147805,0.2507 0.3258042,0.4828 0.5171485,0.7016 0.1194784,0.107 0.2519242,0.1977 0.3839871,0.2882 0.1551049,0.1227 0.3310639,0.2119 0.4975379,0.3164 0.172077,0.1036 0.358406,0.1814 0.531043,0.2834 0.07283,0.048 0.156409,0.071 0.237553,0.1 0,0 -0.775551,0.5239 -0.775551,0.5239 l 0,0 c -0.08569,-0.03 -0.16945,-0.065 -0.245699,-0.1152 -0.173879,-0.099 -0.3553693,-0.1853 -0.5276254,-0.2878 -0.171489,-0.1009 -0.3441815,-0.1989 -0.5042575,-0.318 -0.1383177,-0.094 -0.275819,-0.1912 -0.3940383,-0.3108 -0.190112,-0.2268 -0.362826,-0.4693 -0.5074355,-0.7278 -0.2601792,-0.469 -0.5002296,-0.9481 -0.7198633,-1.4376 0,0 0.8127364,-0.4498 0.8127364,-0.4498 z"
       inkscape:connector-curvature="0" />
    <path
       style="fill:#000000;fill-opacity:0;stroke:#b87333;stroke-width:1;stroke-linecap:round;stroke-miterlimit:4;stroke-dasharray:none;stroke-opacity:1"
       id="path4255"
       d="m 9.546398,1041.0738 c 0.516145,0.2424 0.994226,0.5558 1.464015,0.8769 0.33173,0.2151 0.662461,0.4318 0.989933,0.6534 0.192345,0.1206 0.343444,0.2849 0.495595,0.4499 0.09968,0.1263 0.145818,0.2709 0.1457,0.43 0.0035,0.1447 -0.05175,0.273 -0.108443,0.4024 -0.05883,0.1177 -0.08791,0.2458 -0.148125,0.3627 -0.04935,0.097 -0.101402,0.191 -0.148265,0.2887 -0.04877,0.1027 -0.11397,0.1956 -0.15606,0.3015 -0.05646,0.1162 -0.10532,0.2359 -0.159187,0.3534 -0.01985,0.055 -0.04513,0.1052 -0.07555,0.1551 0,0 -0.862771,0.367 -0.862771,0.367 l 0,0 c 0.0449,-0.039 0.07272,-0.072 0.08542,-0.1324 0.05213,-0.1161 0.09568,-0.2364 0.163458,-0.3448 0.03192,-0.1125 0.08488,-0.2136 0.152128,-0.3092 0.0417,-0.1025 0.09409,-0.1981 0.14578,-0.295 0.01899,-0.035 0.04268,-0.066 0.05986,-0.1019 0.03972,-0.082 0.04377,-0.1783 0.09172,-0.2573 0.05905,-0.1171 0.120091,-0.2352 0.124154,-0.3682 0.01092,-0.1372 -0.01923,-0.2589 -0.108686,-0.3678 -0.144588,-0.1616 -0.287568,-0.3223 -0.475048,-0.4373 -0.321448,-0.2247 -0.646294,-0.4445 -0.969635,-0.6666 -0.4645958,-0.3236 -0.9425881,-0.6456 -1.4801036,-0.8353 0,0 0.7741146,-0.5252 0.7741146,-0.5252 z"
       inkscape:connector-curvature="0" />
    <path
       style="fill:#000000;fill-opacity:0;stroke:#b87333;stroke-width:1;stroke-linecap:round;stroke-miterlimit:4;stroke-dasharray:none;stroke-opacity:1"
       id="path4257"
       d="m 11.677594,1040.9284 c 0.121991,0.162 0.193689,0.3535 0.26596,0.5411 0.03807,0.098 0.05905,0.2004 0.07514,0.3039 0,0 -0.827892,0.4363 -0.827892,0.4363 l 0,0 c -0.01191,-0.098 -0.02827,-0.1945 -0.06219,-0.2874 -0.06553,-0.1789 -0.129157,-0.3645 -0.254788,-0.5113 0,0 0.803774,-0.4826 0.803774,-0.4826 z"
       inkscape:connector-curvature="0" />
    <path
       style="fill:#000000;fill-opacity:0;stroke:#b87333;stroke-width:1;stroke-linecap:round;stroke-miterlimit:4;stroke-dasharray:none;stroke-opacity:1"
       id="path4259"
       d="m 9.476279,1042.1104 c 0.3182946,0.2726 0.596945,0.5872 0.892391,0.8836 0.187621,0.1914 0.384434,0.3734 0.551288,0.5839 0.07761,0.082 0.167839,0.1548 0.263071,0.2162 0.121808,0.1021 0.259382,0.182 0.400748,0.2535 0.106187,0.052 0.221241,0.07 0.337476,0.081 0,0 -0.764306,0.5409 -0.764306,0.5409 l 0,0 c -0.123178,-0.02 -0.24351,-0.05 -0.353949,-0.1102 -0.142089,-0.077 -0.281749,-0.1594 -0.408563,-0.2604 -0.100939,-0.07 -0.20148,-0.145 -0.277843,-0.2425 -0.1580214,-0.2105 -0.3422838,-0.3973 -0.5235179,-0.5876 -0.2902445,-0.2968 -0.5674452,-0.6135 -0.9071486,-0.8557 0,0 0.7903535,-0.5025 0.7903535,-0.5025 z"
       inkscape:connector-curvature="0" />
    <path
       style="fill:#000000;fill-opacity:0;stroke:#b87333;stroke-width:1;stroke-linecap:round;stroke-miterlimit:4;stroke-dasharray:none;stroke-opacity:1"
       id="path4261"
       d="m 14.049651,1041.0404 c -0.112689,0.5121 -0.170501,1.0337 -0.229147,1.5542 -0.04424,0.4141 -0.07073,0.8297 -0.08271,1.2459 -0.0052,0.195 -0.003,0.39 -0.0013,0.585 0.0088,0.125 -0.02486,0.2463 -0.04141,0.3691 -0.0054,0.096 -0.04227,0.2156 0.02855,0.2944 0,0 -0.805768,0.4799 -0.805768,0.4799 l 0,0 c -0.08725,-0.122 -0.07333,-0.2148 -0.062,-0.3589 0.01202,-0.1212 0.0451,-0.2386 0.04776,-0.3598 4.81e-4,-0.1976 0.0022,-0.3953 0.0086,-0.5928 0.0185,-0.4232 0.05978,-0.8448 0.106967,-1.2656 0.05627,-0.5129 0.113157,-1.0261 0.190159,-1.5364 0,0 0.840287,-0.415 0.840287,-0.415 z"
       inkscape:connector-curvature="0" />
    <path
       style="fill:#000000;fill-opacity:0;stroke:#b87333;stroke-width:1;stroke-linecap:round;stroke-miterlimit:4;stroke-dasharray:none;stroke-opacity:1"
       id="path4263"
       d="m 15.25418,1041.0983 c -0.0095,0.2713 -0.0046,0.5429 -0.0062,0.8143 -9.4e-5,0.2505 0.0022,0.501 0.0027,0.7514 7.25e-4,0.1955 0.0012,0.3909 9.27e-4,0.5864 2.78e-4,0.1249 2.65e-4,0.062 2.6e-5,0.1888 0,0 -0.830069,0.4229 -0.830069,0.4229 l 0,0 c -2.39e-4,-0.1266 -2.51e-4,-0.064 2.7e-5,-0.1888 -3.08e-4,-0.1958 2.03e-4,-0.3915 9.26e-4,-0.5873 5.42e-4,-0.2514 0.0028,-0.5028 0.0027,-0.7542 -0.0016,-0.2693 0.0034,-0.5388 -0.0062,-0.808 0,0 0.835129,-0.4255 0.835129,-0.4255 z"
       inkscape:connector-curvature="0" />
    <path
       style="fill:#000000;fill-opacity:0;stroke:#b87333;stroke-width:1;stroke-linecap:round;stroke-miterlimit:4;stroke-dasharray:none;stroke-opacity:1"
       id="path4265"
       d="m 13.696333,1044.9836 c 0.496102,-0.3492 1.042826,-0.5869 1.583603,-0.8477 0.196599,-0.098 0.402213,-0.1753 0.601386,-0.2676 0.0237,-0.015 0.04711,-0.031 0.07111,-0.045 0.02229,-0.014 0.04463,-0.027 0.0677,-0.039 0.02146,-0.011 0.08679,-0.044 0.06579,-0.031 -0.24805,0.1444 -0.497515,0.2864 -0.747139,0.428 -0.03475,0.02 0.06627,-0.045 0.09759,-0.07 0.103847,-0.087 0.176411,-0.1885 0.216482,-0.3176 0.03381,-0.1666 0.03197,-0.3378 0.03244,-0.507 -4.55e-4,-0.1407 -0.0019,-0.2814 -0.0026,-0.422 -6.02e-4,-0.1266 -6.75e-4,-0.2532 -7.29e-4,-0.3798 -3e-5,-0.126 -1.3e-5,-0.2521 -6e-6,-0.3782 8e-6,-0.1262 10e-6,-0.2525 1.1e-5,-0.3787 10e-7,-0.1263 10e-7,-0.2525 10e-7,-0.3788 0,-0.063 0,-0.1263 0,-0.1894 0,0 0.834738,-0.4253 0.834738,-0.4253 l 0,0 c 0,0.063 0,0.1262 0,0.1894 0,0.1262 0,0.2525 0,0.3788 -1e-6,0.1262 -2e-6,0.2525 -4e-6,0.3787 -2e-6,0.1261 -7e-6,0.2521 1.2e-5,0.3782 2.9e-5,0.1265 7.4e-5,0.2531 2.99e-4,0.3796 2.67e-4,0.1413 8.06e-4,0.2826 3.85e-4,0.424 -0.0011,0.1753 -5.23e-4,0.3512 -0.0211,0.5255 -0.02564,0.1421 -0.08015,0.2696 -0.193663,0.3646 -0.288572,0.3459 -0.766161,0.4719 -1.151755,0.6953 -0.197974,0.087 -0.398327,0.1676 -0.592263,0.2633 -0.359121,0.1719 -1.49043,0.7421 0.0088,-0.072 0,0 -0.871064,0.3441 -0.871064,0.3441 z"
       inkscape:connector-curvature="0" />
  </g>
</svg>
